<svg width="680" height="505" viewBox="0 0 680 505" fill="none" xmlns="http://www.w3.org/2000/svg">
<path d="M325.756 382.287L245.771 414.41L146.759 167.872L214.368 140.72C221.202 137.975 228.967 141.291 231.712 148.125L325.756 382.287Z" fill="#F4A640"/>
<path d="M296.988 157.761L143.844 184.918L182.027 400.237L335.171 373.08L296.988 157.761Z" fill="#ADCFD8"/>
<path d="M258.306 186.663L189.919 198.79L190.191 200.324L258.578 188.197L258.306 186.663Z" fill="#55769F"/>
<path d="M271.982 180.221L174.862 197.443L175.134 198.978L272.254 181.756L271.982 180.221Z" fill="#55769F"/>
<path d="M285.885 198.402L168.057 219.297L168.329 220.831L286.158 199.936L285.885 198.402Z" fill="#55769F"/>
<path d="M287.196 205.785L169.367 226.679L169.639 228.214L287.468 207.319L287.196 205.785Z" fill="#55769F"/>
<path d="M289.814 220.554L171.985 241.448L172.257 242.983L290.086 222.088L289.814 220.554Z" fill="#55769F"/>
<path d="M291.125 227.936L173.296 248.831L173.568 250.365L291.397 229.471L291.125 227.936Z" fill="#55769F"/>
<path d="M292.432 235.323L174.604 256.217L174.876 257.752L292.705 236.857L292.432 235.323Z" fill="#55769F"/>
<path d="M298.193 267.801L180.364 288.695L180.636 290.23L298.465 269.335L298.193 267.801Z" fill="#55769F"/>
<path d="M299.549 275.458L181.721 296.353L181.993 297.887L299.822 276.993L299.549 275.458Z" fill="#55769F"/>
<path d="M300.908 283.116L183.079 304.011L183.351 305.545L301.18 284.651L300.908 283.116Z" fill="#55769F"/>
<path d="M302.264 290.774L184.435 311.669L184.707 313.203L302.536 292.309L302.264 290.774Z" fill="#55769F"/>
<path d="M303.625 298.429L185.796 319.323L186.068 320.858L303.897 299.963L303.625 298.429Z" fill="#55769F"/>
<path d="M304.981 306.089L187.153 326.984L187.425 328.518L305.254 307.624L304.981 306.089Z" fill="#55769F"/>
<path d="M306.339 313.745L188.51 334.639L188.782 336.174L306.611 315.279L306.339 313.745Z" fill="#55769F"/>
<path d="M274.931 152.413L124.509 191.998L180.165 403.49L330.587 363.905L274.931 152.413Z" fill="#DAEEF7"/>
<path d="M238.737 184.381L171.565 202.058L171.962 203.565L239.133 185.889L238.737 184.381Z" fill="#55769F"/>
<path d="M251.841 176.845L156.447 201.949L156.844 203.456L252.238 178.353L251.841 176.845Z" fill="#55769F"/>
<path d="M267.187 193.826L151.452 224.283L151.849 225.79L267.583 195.333L267.187 193.826Z" fill="#55769F"/>
<path d="M269.094 201.08L153.359 231.536L153.756 233.044L269.49 202.587L269.094 201.08Z" fill="#55769F"/>
<path d="M272.913 215.585L157.178 246.042L157.575 247.549L273.309 217.093L272.913 215.585Z" fill="#55769F"/>
<path d="M274.822 222.839L159.087 253.296L159.484 254.803L275.219 224.347L274.822 222.839Z" fill="#55769F"/>
<path d="M276.728 230.093L160.994 260.549L161.391 262.057L277.125 231.6L276.728 230.093Z" fill="#55769F"/>
<path d="M285.123 261.995L169.388 292.452L169.785 293.959L285.519 263.503L285.123 261.995Z" fill="#55769F"/>
<path d="M287.104 269.513L171.37 299.97L171.766 301.477L287.501 271.021L287.104 269.513Z" fill="#55769F"/>
<path d="M289.083 277.037L173.348 307.494L173.745 309.001L289.48 278.544L289.083 277.037Z" fill="#55769F"/>
<path d="M291.063 284.557L175.329 315.014L175.725 316.521L291.46 286.065L291.063 284.557Z" fill="#55769F"/>
<path d="M293.041 292.078L177.306 322.534L177.703 324.042L293.438 293.585L293.041 292.078Z" fill="#55769F"/>
<path d="M295.022 299.602L179.287 330.058L179.684 331.565L295.419 301.109L295.022 299.602Z" fill="#55769F"/>
<path d="M297 307.121L181.266 337.578L181.662 339.085L297.397 308.629L297 307.121Z" fill="#55769F"/>
<path d="M295.406 394.476L134.377 459.148L40.4567 225.288L175.771 141.816C183.375 137.124 193.373 140.416 196.704 148.709L295.406 394.476Z" fill="#FEB546"/>
<path d="M82.4131 421.303L59.44 420.887C51.4636 406.433 45.614 393.865 45.614 393.865C71.5584 387.885 93.4541 390.341 111.698 397.351L121.752 421.771L123.904 402.968C169.114 427.366 187.743 479.013 187.743 479.013C187.743 479.013 107.842 470.503 90.905 462.626C84.3661 459.583 76.1226 448.638 68.4691 436.349C74.5888 430.518 82.4131 421.303 82.4131 421.303Z" fill="#FF5B7E"/>
<path d="M45.614 393.862C45.614 393.862 148.196 437.032 187.74 479.01C187.74 479.01 107.839 470.5 90.9019 462.622C84.363 459.58 76.1195 448.635 68.4659 436.346C74.5888 430.515 82.4131 421.299 82.4131 421.299L59.44 420.883C51.4667 406.43 45.614 393.862 45.614 393.862Z" fill="#E03268"/>
<path d="M48.8865 462.859C62.7002 454.447 76.6349 449.945 90.1195 448.151C94.072 453.066 98.9249 458.844 98.9249 458.844L99.4373 447.322C151.18 444.968 194.056 479.637 194.056 479.637C164.087 498.524 138.525 503.734 117.582 502.045C116.34 498.015 114.586 492.001 114.586 492.001L110.888 501.257C100.85 499.689 91.9917 496.556 84.3413 492.731C86.3005 487.931 88.3652 482.441 88.3652 482.441L77.2125 488.775C58.521 477.349 48.8865 462.859 48.8865 462.859Z" fill="#FF5B7E"/>
<path d="M117.582 502.045C116.34 498.015 114.586 492.001 114.586 492.001L110.888 501.257C100.85 499.689 91.9917 496.556 84.3412 492.731C86.3004 487.93 88.3652 482.441 88.3652 482.441L77.2124 488.775C58.5241 477.349 48.8896 462.858 48.8896 462.858C109.177 455.894 194.056 479.637 194.056 479.637C164.084 498.524 138.522 503.734 117.582 502.045Z" fill="#E03268"/>
<path d="M350.8 152.043L369.317 138.444C367.486 122.038 365.011 108.398 365.011 108.398C340.374 118.489 323.908 133.135 313.06 149.392L318.947 175.138L306.335 161.026C283.498 207.043 298.097 259.973 298.097 259.973C298.097 259.973 358.432 206.904 367.715 190.693C371.301 184.434 371.714 170.741 370.87 156.285C362.505 155.052 350.8 152.043 350.8 152.043Z" fill="#02CCC0"/>
<path d="M365.011 108.395C365.011 108.395 306.161 202.858 298.101 259.966C298.101 259.966 358.435 206.897 367.718 190.687C371.305 184.427 371.718 170.735 370.873 156.278C362.508 155.052 350.8 152.043 350.8 152.043L369.317 138.444C367.486 122.038 365.011 108.395 365.011 108.395Z" fill="#06BFAD"/>
<path d="M402.164 166.627C386.028 167.732 372.053 172.101 360.003 178.416C359.612 184.71 358.984 192.23 358.984 192.23L351.918 183.117C308.306 211.058 293.303 264.118 293.303 264.118C328.678 262.245 352.56 251.741 368.684 238.276C367.371 234.267 365.334 228.343 365.334 228.343L373.698 233.767C380.992 226.691 386.416 219.022 390.452 211.48C386.081 208.692 381.228 205.401 381.228 205.401L393.992 204.137C402.661 184.021 402.164 166.627 402.164 166.627Z" fill="#02CCC0"/>
<path d="M368.687 238.279C367.374 234.27 365.337 228.346 365.337 228.346L373.702 233.77C380.995 226.694 386.419 219.025 390.456 211.483C386.084 208.695 381.231 205.404 381.231 205.404L393.995 204.14C402.661 184.024 402.164 166.63 402.164 166.63C348.915 195.742 293.307 264.124 293.307 264.124C328.681 262.245 352.56 251.744 368.687 238.279Z" fill="#06BFAD"/>
<path d="M550.196 233.922H561.209C559.408 232.69 557.154 231.954 554.701 231.954H278.835C264.403 231.954 252.701 242.324 252.701 255.12V269.834C252.701 282.626 264.4 292.999 278.835 292.999L551.615 292.915L550.196 233.922Z" fill="#E03268"/>
<path d="M275.842 269.834V255.12C275.842 242.324 287.541 231.954 301.975 231.954H296.051C281.62 231.954 269.917 242.324 269.917 255.12V269.834C269.917 282.626 281.617 292.999 296.051 292.999L301.898 292.996C287.5 292.959 275.842 282.604 275.842 269.834Z" fill="#FEB546"/>
<path d="M340.448 269.834V255.12C340.448 242.324 352.147 231.954 366.582 231.954H360.658C346.226 231.954 334.524 242.324 334.524 255.12V269.834C334.524 282.626 346.223 292.999 360.658 292.999L366.504 292.996C352.107 292.959 340.448 282.604 340.448 269.834Z" fill="#FEB546"/>
<path d="M393.579 232.007C379.775 232.007 368.588 241.924 368.588 254.16V270.79C368.588 283.026 379.778 292.943 393.579 292.943H565.314V289.224H564.603L520.945 285.56L512.121 254.874C512.121 254.874 529.151 237.915 530.263 237.481C531.374 237.043 564.603 235.717 564.603 235.717L565.314 235.711V232.013H393.579V232.007Z" fill="#FF5B7E"/>
<path d="M554.176 262.366C554.176 244.423 564.637 235.726 564.637 235.726H397.1C384.423 235.726 374.146 244.836 374.146 256.076V268.877C374.146 280.114 384.423 289.227 397.1 289.227H564.637C564.634 289.224 554.176 284.958 554.176 262.366Z" fill="#DAEEF7"/>
<path d="M374.142 256.076V268.877C374.142 270.56 374.378 272.193 374.81 273.758C380.461 261.503 391.291 249.698 411.907 245.904C460.039 237.043 564.634 235.729 564.634 235.729H397.097C384.42 235.726 374.142 244.836 374.142 256.076Z" fill="#DAEEF7"/>
<path d="M545.653 355.938H558.117C556.077 354.395 553.527 353.473 550.752 353.473H238.524C222.189 353.473 208.947 366.455 208.947 382.47V400.888C208.947 416.903 222.189 429.885 238.524 429.885L547.259 429.782L545.653 355.938Z" fill="#284C7A"/>
<path d="M368.395 353.542C352.775 353.542 340.11 365.958 340.11 381.271V402.086C340.11 417.4 352.775 429.816 368.395 429.816H562.765V425.159H561.96L512.546 420.57L502.558 382.159C502.558 382.159 521.833 360.934 523.09 360.388C524.348 359.841 561.957 358.18 561.957 358.18L562.761 358.171V353.542H368.395Z" fill="#55769F"/>
<path d="M550.159 391.542C550.159 369.085 561.998 358.199 561.998 358.199H372.379C358.031 358.199 346.397 369.603 346.397 383.668V399.69C346.397 413.755 358.028 425.159 372.379 425.159H561.998C561.995 425.159 550.159 419.819 550.159 391.542Z" fill="#DAEEF7"/>
<path d="M346.394 383.668V399.689C346.394 401.795 346.661 403.841 347.152 405.797C353.548 390.455 365.803 375.682 389.136 370.932C443.611 359.841 561.995 358.196 561.995 358.196H372.376C358.028 358.196 346.394 369.6 346.394 383.668Z" fill="#DAEEF7"/>
<path d="M198.657 294.797H186.188C188.228 293.574 190.78 292.841 193.556 292.841H505.905C522.246 292.841 535.494 303.143 535.494 315.848V330.463C535.494 343.171 522.246 353.47 505.905 353.47L197.049 353.389L198.657 294.797Z" fill="#02CCC0"/>
<path d="M375.984 292.897C391.611 292.897 404.282 302.749 404.282 314.902V331.417C404.282 343.569 391.614 353.421 375.984 353.421H181.54V349.726H182.344L231.777 346.087L241.769 315.61C241.769 315.61 222.484 298.769 221.227 298.334C219.969 297.899 182.344 296.583 182.344 296.583L181.54 296.577V292.904H375.984V292.897Z" fill="#06BFAD"/>
<path d="M194.149 323.048C194.149 305.229 182.307 296.592 182.307 296.592H372C386.354 296.592 397.991 305.639 397.991 316.801V329.513C397.991 340.675 386.354 349.722 372 349.722H182.307C182.307 349.726 194.149 345.487 194.149 323.048Z" fill="#DAEEF7"/>
<path d="M397.991 316.801V329.513C397.991 331.183 397.724 332.807 397.234 334.36C390.834 322.188 378.573 310.464 355.231 306.695C300.733 297.893 182.304 296.589 182.304 296.589H371.997C386.354 296.592 397.991 305.639 397.991 316.801Z" fill="#DAEEF7"/>
<path opacity="0.5" d="M478.274 330.466V315.851C478.274 303.146 465.026 292.844 448.685 292.844H478.346C494.687 292.844 507.935 303.146 507.935 315.851V330.466C507.935 343.174 494.687 353.473 478.346 353.473L449.079 353.464C465.237 353.299 478.274 343.069 478.274 330.466Z" fill="#55769F"/>
<path d="M175.075 432.226H161.634C163.833 430.859 166.584 430.04 169.577 430.04H506.296C523.913 430.04 538.196 441.55 538.196 455.745V472.074C538.196 486.272 523.913 497.779 506.296 497.779L173.343 497.689L175.075 432.226Z" fill="#FEB546"/>
<path d="M366.237 430.099C383.085 430.099 396.743 441.106 396.743 454.683V473.136C396.743 486.713 383.085 497.72 366.237 497.72H156.623V493.594H157.489L210.779 489.526L221.549 455.475C221.549 455.475 200.762 436.656 199.405 436.172C198.049 435.688 157.489 434.216 157.489 434.216L156.623 434.21V430.105H366.237V430.099Z" fill="#F4A640"/>
<path d="M170.216 463.79C170.216 443.881 157.449 434.228 157.449 434.228H361.943C377.418 434.228 389.962 444.338 389.962 456.81V471.012C389.962 483.484 377.418 493.594 361.943 493.594H157.449C157.449 493.594 170.216 488.859 170.216 463.79Z" fill="#DAEEF7"/>
<path d="M389.962 456.807V471.012C389.962 472.878 389.676 474.691 389.145 476.427C382.249 462.827 369.029 449.728 343.867 445.518C285.116 435.684 157.449 434.228 157.449 434.228H361.943C377.418 434.228 389.962 444.338 389.962 456.807Z" fill="#DAEEF7"/>
<path d="M643.392 504.79H75.5078C73.8312 504.79 72.4681 503.43 72.4681 501.75V500.353C72.4681 498.677 73.8281 497.313 75.5078 497.313H643.395C645.075 497.313 646.435 498.673 646.435 500.353V501.75C646.432 503.43 645.072 504.79 643.392 504.79Z" fill="#C4DFE8"/>
<path d="M68.9875 251.108L178.621 188.399L193.441 217.752L81.2581 277.099L68.9875 251.108Z" fill="#F4A640"/>
<path d="M275.587 72.4899C275.587 72.4899 274.721 81.0159 267.992 81.6058C274.721 82.1958 275.587 90.7218 275.587 90.7218C275.587 90.7218 276.453 82.1958 283.182 81.6058C276.453 81.0159 275.587 72.4899 275.587 72.4899Z" fill="#02CCC0"/>
<path d="M159.334 6.98596C159.334 6.98596 158.182 18.3437 149.218 19.1292C158.182 19.9147 159.334 31.2724 159.334 31.2724C159.334 31.2724 160.486 19.9147 169.449 19.1292C160.486 18.3437 159.334 6.98596 159.334 6.98596Z" fill="#FEB546"/>
<path d="M112.378 108.569C112.378 108.569 111.605 116.194 105.588 116.722C111.605 117.25 112.378 124.876 112.378 124.876C112.378 124.876 113.152 117.25 119.169 116.722C113.152 116.194 112.378 108.569 112.378 108.569Z" fill="#FF5B7E"/>
<path d="M645.631 290.528C645.631 290.528 644.479 301.885 635.518 302.671C644.482 303.456 645.631 314.814 645.631 314.814C645.631 314.814 646.783 303.456 655.747 302.671C646.783 301.885 645.631 290.528 645.631 290.528Z" fill="#FF5B7E"/>
<path d="M10.1157 190.525C10.1157 190.525 8.96382 201.883 0 202.669C8.96382 203.454 10.1157 214.812 10.1157 214.812C10.1157 214.812 11.2676 203.454 20.2315 202.669C11.2676 201.883 10.1157 190.525 10.1157 190.525Z" fill="#02CCC0"/>
<path d="M669.573 178.382C669.573 178.382 668.421 189.74 659.46 190.525C668.421 191.311 669.573 202.669 669.573 202.669C669.573 202.669 670.725 191.311 679.689 190.525C670.725 189.74 669.573 178.382 669.573 178.382Z" fill="#02CCC0"/>
<path d="M389.962 0C389.962 0 388.81 11.3577 379.846 12.1432C388.81 12.9288 389.962 24.2865 389.962 24.2865C389.962 24.2865 391.114 12.9288 400.078 12.1432C391.114 11.3577 389.962 0 389.962 0Z" fill="#FF5B7E"/>
<path d="M581.968 94.8481C581.968 94.8481 581.341 102.02 576.47 102.514C581.341 103.011 581.968 110.18 581.968 110.18C581.968 110.18 582.596 103.008 587.464 102.514C582.596 102.02 581.968 94.8481 581.968 94.8481Z" fill="#FEB546"/>
<path d="M188.687 444.35L173.551 445.117L171.635 490.02L163.892 493.749L164.264 495.385L167.142 496.065C167.142 496.065 176.454 495.907 176.734 495.907C177.013 495.907 178.932 493.789 178.932 493.789L178.643 493.42L180.189 492.37L188.687 444.35Z" fill="#FFC0BB"/>
<path d="M229.687 493.749C229.687 493.749 222.127 489.952 221.941 490.02L223.655 444.297L204.892 444.353L213.39 492.367L214.321 493.001C214.088 493.799 213.902 494.488 213.859 494.708C213.738 495.308 217.057 495.348 218.215 495.547C219.373 495.745 222.729 496.106 224.887 496.705C227.045 497.304 229.762 495.547 229.762 495.547L229.687 493.749Z" fill="#FFC0BB"/>
<path d="M230.193 320.934C228.008 315.252 225.884 317.503 221.941 310.632C221.313 309.539 220.863 308.126 220.547 306.822C219.603 302.926 217.553 299.367 214.52 296.747C205.274 288.761 194.813 292.307 194.813 292.307C194.813 292.307 197.527 307.741 198.045 310.871C195.735 314.016 193.404 317.227 193.404 317.227C193.404 317.227 188.538 342.597 196.173 344.736C203.811 346.875 205.199 343.441 208.928 341.656C212.657 339.868 216.299 344.748 221.869 341.352C226.126 338.756 223.965 332.285 226.216 331.071C228.467 329.857 232.55 327.066 230.193 320.934Z" fill="#FF5500"/>
<path d="M190.851 305.108C190.715 305.049 187.216 303.075 183.937 301.224L204.296 278.562C204.296 278.562 198.126 277.366 197.75 277.32C197.375 277.273 188.529 280.027 188.529 280.027L179.407 282.499C172.446 307.9 163.777 312.498 163.774 312.501C162.727 313.197 161.737 314.125 160.737 315.743C157.281 321.331 160.777 324.831 162.765 326.442C164.752 328.053 161.426 334.012 165.127 337.35C169.974 341.721 174.454 337.598 177.789 340.048C181.124 342.497 181.85 346.127 189.752 345.441C197.654 344.755 197.577 318.922 197.577 318.922C197.577 318.922 191.106 305.22 190.851 305.108Z" fill="#FF5500"/>
<path d="M225.412 351.415C225.412 351.415 232.131 383.491 230.181 386.959C228.231 390.428 202.656 391.511 202.656 391.511L201.573 350.331L211.325 335.592L225.412 351.415Z" fill="#FF5B7E"/>
<path d="M217.302 388.546L212.524 375.453C212.524 375.453 196.794 369.724 195.794 369.653C194.795 369.585 181.481 375.453 181.481 375.453C181.481 375.453 177.41 383.693 176.616 385.171C176.175 385.991 177.19 391.033 178.183 395.368L172.542 395.631L168.794 478.417C168.794 478.417 176.917 482.792 185.663 479.041L192.848 406.731L199.095 405.794L208.465 477.476C208.465 477.476 215.964 483.099 226.586 478.414L219.547 398.637C219.246 395.191 218.488 391.797 217.302 388.546Z" fill="#07085B"/>
<path d="M186.713 325.855C186.713 325.855 193.689 324.393 206.674 325.312C219.655 326.234 200.669 333.549 200.669 333.549C200.669 333.549 194.006 333.332 193.72 333.279C193.432 333.223 186.713 325.855 186.713 325.855Z" fill="#FFC0BB"/>
<path d="M203.221 318.521H191.696V338.75H203.221V318.521Z" fill="#FFC0BB"/>
<path d="M203.203 321.98V315.081H191.696V320.949C194.174 322.281 197.841 323.045 203.203 321.98Z" fill="#F99893"/>
<path d="M219.348 296.002C218.246 295.458 216.967 295.555 215.809 296.141C216.206 285.718 207.708 276.953 197.002 277.323C186.297 276.953 177.798 285.718 178.196 296.141C177.038 295.555 175.759 295.458 174.656 296.002C172.542 297.045 171.884 300.032 173.188 302.677C174.492 305.319 177.261 306.617 179.376 305.574C179.671 305.428 179.932 305.245 180.168 305.031C181.378 313.647 188.566 320.105 196.999 319.987C205.432 320.108 212.62 313.647 213.831 305.031C214.067 305.245 214.328 305.431 214.622 305.574C216.737 306.617 219.506 305.319 220.811 302.677C222.121 300.035 221.463 297.045 219.348 296.002Z" fill="#FFC0BB"/>
<path d="M192.249 299.846C192.295 300.718 191.628 301.466 190.755 301.513C189.883 301.559 189.134 300.892 189.088 300.019C189.041 299.147 189.709 298.399 190.581 298.352C191.457 298.302 192.202 298.973 192.249 299.846Z" fill="#333333"/>
<path d="M205.876 299.991C205.923 300.864 205.255 301.612 204.383 301.659C203.51 301.705 202.762 301.038 202.715 300.165C202.669 299.293 203.336 298.545 204.209 298.498C205.081 298.451 205.829 299.119 205.876 299.991Z" fill="#333333"/>
<path d="M193.987 296.607C193.196 296.331 192.441 296.117 191.69 295.983C190.941 295.85 190.199 295.815 189.476 295.893C188.756 295.98 188.032 296.126 187.34 296.439L187.07 296.539C186.98 296.573 186.899 296.626 186.812 296.666L186.281 296.924C185.927 297.101 185.595 297.327 185.201 297.504C185.412 297.147 185.654 296.796 185.933 296.477C186.244 296.194 186.529 295.856 186.905 295.641C187.607 295.129 188.482 294.844 189.358 294.747C190.24 294.654 191.14 294.791 191.941 295.12C192.739 295.449 193.469 295.933 193.987 296.607Z" fill="#FF5500"/>
<path d="M200.368 296.582C200.88 295.909 201.607 295.418 202.399 295.076C203.196 294.744 204.094 294.598 204.979 294.685C205.857 294.775 206.733 295.055 207.438 295.561C207.817 295.772 208.105 296.107 208.416 296.387C208.698 296.703 208.941 297.054 209.155 297.408C208.76 297.234 208.428 297.011 208.071 296.837L207.54 296.585C207.45 296.548 207.369 296.495 207.279 296.461L207.009 296.362C206.314 296.054 205.59 295.912 204.87 295.831C204.147 295.759 203.408 295.8 202.656 295.94C201.908 296.079 201.157 296.3 200.368 296.582Z" fill="#FF5500"/>
<path d="M197.785 297.681C197.707 298.514 197.766 299.346 197.921 300.168C197.999 300.581 198.111 300.991 198.272 301.398C198.44 301.802 198.642 302.208 199.011 302.559C199.433 302.885 199.616 302.981 199.734 303.276C199.859 303.534 199.803 303.863 199.669 304.177C199.374 304.816 198.694 305.295 197.952 305.649C198.769 305.611 199.672 305.282 200.206 304.484C200.467 304.096 200.61 303.55 200.442 303.031C200.269 302.497 199.961 302.308 199.629 302.044C199.334 301.808 199.145 301.476 198.955 301.1C198.778 300.761 198.657 300.383 198.514 300.013C198.257 299.252 198.03 298.473 197.785 297.681Z" fill="#F99893"/>
<path d="M192.593 307.605C193.031 307.906 193.481 308.179 193.953 308.412C194.419 308.654 194.9 308.865 195.394 309.036C196.381 309.377 197.409 309.589 198.446 309.592C199.483 309.598 200.511 309.384 201.476 308.996C202.439 308.595 203.33 308.021 204.156 307.356C203.79 307.741 203.395 308.101 202.967 308.424C202.541 308.747 202.073 309.014 201.591 309.256C201.104 309.486 200.588 309.666 200.061 309.784C199.53 309.899 198.989 309.955 198.446 309.958C197.359 309.949 196.285 309.713 195.295 309.297C194.307 308.887 193.376 308.328 192.593 307.605Z" fill="#F99893"/>
<path d="M219.87 329.898C213.626 323.837 204.991 325.122 204.991 325.122C204.025 326.088 203.06 326.818 202.104 327.361C200.734 328.057 199.017 328.659 197.105 328.709C197.071 328.709 197.036 328.712 197.002 328.709C196.968 328.709 196.934 328.709 196.9 328.709C194.987 328.659 193.267 328.057 191.901 327.361C190.945 326.815 189.979 326.088 189.013 325.122C189.013 325.122 180.379 323.837 174.135 329.898C167.891 335.959 161.644 349.331 161.644 349.331C161.644 349.331 169.543 356.532 177.072 357.451C177.072 357.451 180.745 374.35 181.481 375.453C181.481 375.453 185.272 377.232 190.783 378.163C192.789 378.545 194.761 378.704 196.651 378.713C196.769 378.716 196.884 378.713 197.002 378.716C197.12 378.716 197.238 378.716 197.353 378.713C199.244 378.704 201.216 378.545 203.221 378.163C208.733 377.232 212.524 375.453 212.524 375.453C213.259 374.35 216.933 357.451 216.933 357.451C224.462 356.532 232.361 349.331 232.361 349.331C232.361 349.331 226.117 335.962 219.87 329.898Z" fill="#02CCC0"/>
<path d="M197.676 370.895C197.676 370.895 199.995 370.51 201.275 372.214L201.185 376.601L198.35 377.921C198.35 377.921 194.838 374.931 195.102 374.857C195.366 374.779 197.676 370.895 197.676 370.895Z" fill="#E03268"/>
<path d="M204.895 399.556L167.543 410.361L163.926 383.019L201.275 372.211L204.895 399.556Z" fill="#E03268"/>
<path d="M164.46 405.961L167.739 408.731L203.488 398.485L200.275 372.717L197.754 371.659L164.46 405.961Z" fill="#DAEEF7"/>
<path d="M203.488 398.485L200.939 396.268L196.276 391.145L196.558 377.046L197.754 371.659L200.287 372.674L203.488 398.485Z" fill="#DAEEF7"/>
<path d="M200.939 396.268L163.587 407.073L160.324 381.7L197.676 370.895L200.939 396.268Z" fill="#FF5B7E"/>
<path d="M182.611 342.786C181.745 343.842 180.953 344.938 180.23 346.071C179.509 347.207 178.86 348.384 178.336 349.614C177.805 350.84 177.401 352.116 177.174 353.43C176.945 354.746 176.92 356.094 177.078 357.451C176.659 356.15 176.535 354.74 176.681 353.361C176.814 351.977 177.212 350.632 177.749 349.359C178.305 348.092 179 346.891 179.823 345.789C180.633 344.686 181.552 343.656 182.611 342.786Z" fill="#DAEEF7"/>
<path d="M174.861 388.903C168.285 377.769 171.328 364.222 173.93 356.733C168.766 355.069 163.985 351.312 162.293 349.89C151.795 373.59 169.574 393.871 169.574 393.871L169.608 393.837C169.946 394.601 170.195 395.284 170.195 395.284C174.386 402.86 174.569 402.738 174.871 402.633C175.172 402.524 174.343 398.923 174.712 398.932C175.082 398.941 177.727 403.282 177.923 402.875C178.115 402.468 176.162 398.162 176.448 398.09C176.733 398.016 179.224 402.245 179.773 401.878C180.323 401.515 177.435 396.976 177.988 396.864C178.541 396.752 181.378 401.478 181.825 401.065C182.201 400.717 179.155 395.355 178.177 393.657C178.05 393.436 178.221 393.166 178.472 393.182C182.363 393.408 182.676 393.197 182.602 392.766C182.549 392.461 177.879 390.282 174.861 388.903Z" fill="#FFC0BB"/>
<path d="M218.858 326.312C210.797 355.324 220.528 363.884 220.568 364.107L219.112 370.858C219.112 370.858 199.259 357.95 211.844 323.558C212.198 322.592 213.25 322.086 214.185 322.517L217.951 324.262C218.724 324.623 219.087 325.489 218.858 326.312Z" fill="#E03268"/>
<path d="M236.456 397.159C236.456 397.159 236.201 396.516 235.959 395.756C235.959 395.752 235.959 395.749 235.962 395.746H235.959L235.58 392.933C235.345 386.556 234.286 363.94 230.802 350.632C228.15 352.737 222.521 356.715 217.057 357.429C220.481 364.592 227.654 381.1 228.899 396.11C227.635 398.972 225.934 402.931 226.08 403.167C226.3 403.518 226.654 403.471 229.268 400.866C229.439 400.699 229.728 400.782 229.777 401.018C230.15 402.838 231.361 408.554 231.845 408.563C232.42 408.576 231.463 403.44 231.929 403.173C232.392 402.906 233.199 407.936 233.817 407.849C234.435 407.762 233.547 403.201 233.792 403.074C234.04 402.946 235.36 407.228 235.751 407.396C236.146 407.563 235.292 402.822 235.549 402.583C235.807 402.344 237.484 405.418 237.763 405.306C238.04 405.194 238.244 405.166 236.456 397.159Z" fill="#FFC0BB"/>
<path d="M174.88 295.893C174.88 295.893 173.712 274.323 197.751 272.898C197.751 272.898 197.002 294.089 178.196 296.145L176.746 293.328L174.88 295.893Z" fill="#FF5500"/>
<path d="M197.751 272.895C197.751 272.895 217.249 271.802 218.283 295.676C218.283 295.676 216.867 295.573 215.812 296.141C215.812 296.141 200.368 292.279 196.536 277.313L197.751 272.895Z" fill="#FF5500"/>
<path d="M170.458 495.388C166.54 495.783 164.69 494.929 163.892 493.749L161.237 495.482C160.184 496.152 160.659 497.782 161.908 497.782H179.155C179.764 497.782 180.258 497.289 180.258 496.68V492.02C179.152 493.162 176.538 494.777 170.458 495.388Z" fill="#07085B"/>
<path d="M223.124 495.388C227.042 495.783 228.893 494.929 229.69 493.749L232.345 495.482C233.398 496.152 232.923 497.782 231.675 497.782H214.424C213.815 497.782 213.322 497.289 213.322 496.68V492.02C214.433 493.162 217.044 494.777 223.124 495.388Z" fill="#07085B"/>
<path d="M583.962 340.976L603.892 342.575L597.459 358.699L587.399 357.891L583.21 371.329C582.189 370.864 581.437 370.51 581.285 370.41C580.981 370.209 579.869 363.539 578.891 357.239L583.962 340.976Z" fill="#DAEEF7"/>
<path d="M595.335 489.238V496.264C595.335 496.845 595.804 497.313 596.381 497.313H612.784C613.97 497.313 614.424 495.758 613.424 495.118L604.221 489.234C604.221 489.238 600.613 491.883 595.335 489.238Z" fill="#E03268"/>
<path d="M563.137 191.435C562.898 191.528 562.647 191.32 562.699 191.069C563.109 189.119 564.364 182.971 563.892 182.754C563.33 182.496 562.075 187.961 561.504 188.026C560.933 188.091 562.293 182.791 561.647 182.614C561.001 182.434 559.927 187.309 559.625 187.327C559.327 187.346 559.858 182.568 559.542 182.232C559.225 181.9 558.036 186.933 557.682 187.06C557.328 187.188 556.993 183.44 556.667 183.431C556.341 183.421 556.126 183.362 554.465 192.013C554.465 192.013 554.366 195.183 553.807 195.928L555.055 198.477L558.924 198.604C558.924 198.604 567.332 190.997 567.26 190.535C567.195 190.094 566.826 189.988 563.137 191.435Z" fill="#FFC0BB"/>
<path d="M602.967 193.351C603.137 193.543 603.454 193.472 603.522 193.224C604.047 191.299 605.733 185.256 606.252 185.278C606.869 185.303 605.494 190.74 605.972 191.059C606.45 191.379 607.658 186.042 608.313 186.175C608.968 186.309 607.705 191.14 607.962 191.292C608.22 191.444 609.925 186.949 610.359 186.796C610.794 186.644 609.555 191.665 609.816 191.941C610.074 192.214 612.08 189.032 612.374 189.175C612.666 189.315 612.887 189.361 610.422 197.819C610.422 197.819 609.065 200.685 609.223 201.604L606.95 203.302L603.448 201.653C603.448 201.653 599.433 191.05 599.703 190.671C599.964 190.305 600.34 190.383 602.967 193.351Z" fill="#FFC0BB"/>
<path d="M572.213 262.624L572.275 277.416L557.905 275.202L560.302 258.569L572.213 262.624Z" fill="#FFC0BB"/>
<path opacity="0.6" d="M559.2 266.226L560.302 258.569L572.225 264.027L572.231 266.946C569.359 267.651 563.982 268.278 559.2 266.226Z" fill="#FC8D84"/>
<path d="M546.253 488.455V496.162C546.253 496.798 545.737 497.313 545.101 497.313H527.058C525.751 497.313 525.254 495.609 526.357 494.907L536.479 488.455C536.479 488.455 540.45 491.358 546.253 488.455Z" fill="#E03268"/>
<path d="M529.775 357.537C529.812 355.889 525.521 360.748 525.602 359.431C527.285 332.068 580.748 355.01 580.748 355.01L593.798 364.586L608.531 491.402C608.531 491.402 600.532 493.718 595.27 491.824L562.643 383.153L558.632 381.61C558.632 381.61 540.788 369.162 529.775 357.537Z" fill="#07085B"/>
<path d="M525.54 360.546C525.524 360.866 525.509 361.192 525.497 361.53C525.509 361.195 525.524 360.869 525.54 360.546Z" fill="#06BFAD"/>
<path d="M525.497 361.549C525.484 361.89 525.472 362.244 525.459 362.605C525.472 362.244 525.484 361.89 525.497 361.549Z" fill="#06BFAD"/>
<path d="M525.456 362.741C525.444 363.114 525.434 363.496 525.425 363.884C525.434 363.496 525.444 363.114 525.456 362.741Z" fill="#06BFAD"/>
<path d="M525.602 359.432C525.583 359.726 525.568 360.034 525.552 360.347C525.565 360.034 525.583 359.726 525.602 359.432Z" fill="#06BFAD"/>
<path d="M525.608 353.215C536.624 364.84 558.635 381.613 558.635 381.613L562.647 383.156L558.635 381.613L546.231 491.408C546.231 491.408 537.391 493.091 532.34 490.355C532.337 490.352 524.888 385.842 525.608 353.215Z" fill="#07085B"/>
<path d="M608.531 491.405C608.531 491.405 605.087 492.402 601.231 492.554C605.087 492.402 608.531 491.405 608.531 491.405Z" fill="#06BFAD"/>
<path d="M596.813 492.252C597.167 492.324 597.53 492.383 597.896 492.429C597.53 492.383 597.17 492.324 596.813 492.252Z" fill="#06BFAD"/>
<path d="M601.231 492.551C600.312 492.588 599.371 492.575 598.449 492.489C599.371 492.575 600.312 492.588 601.231 492.551Z" fill="#06BFAD"/>
<path d="M593.798 364.589L595.9 382.687C590.336 384.842 576.774 387.143 566.556 364.791C563.333 357.739 562.504 352.666 563.1 349.024C572.886 351.641 580.751 355.013 580.751 355.013L593.798 364.589Z" fill="#050645"/>
<path d="M544.744 290.711C545.362 290.711 554.62 269.722 554.62 269.722C562.541 275.276 573.293 271.42 573.293 271.42C573.293 271.42 616.557 350.589 587.542 362.934C558.529 375.279 531.163 360.26 531.163 360.26C531.163 360.26 524.99 344.211 524.99 343.593C524.99 342.979 544.126 290.711 544.744 290.711Z" fill="#DAEEF7"/>
<path d="M601.122 201.821C601.122 201.821 602.998 239.381 599.477 246.267C587.799 269.107 573.293 271.423 573.293 271.423C573.293 271.423 568.304 351.312 572.418 370.448C572.418 370.448 586.101 374.667 606.267 365.2C606.267 365.2 590.836 303.264 591.659 295.446C591.659 295.446 616.352 273.429 617.175 247.503C617.997 221.577 611.207 198.53 611.207 198.53L601.122 201.821Z" fill="#55769F"/>
<path d="M534.557 367.566C534.557 367.566 536.1 337.834 542.89 309.641C549.681 281.452 554.617 269.722 554.617 269.722C545.511 259.69 547.026 250.624 547.827 238.856C548.752 225.275 562.026 198.114 562.026 198.114L553.074 192.249C510.171 243.793 533.939 284.843 533.939 284.843C533.939 284.843 517.89 341.634 515.729 358.919C515.732 358.925 524.27 363.862 534.557 367.566Z" fill="#55769F"/>
<path d="M591.243 295.359C590.727 294.993 590.116 294.434 589.519 293.72C587.7 291.524 586.756 289.053 586.104 286.29C586.498 287.469 587.554 290.897 589.777 293.502C590.774 294.639 591.298 295.024 591.783 295.334C591.705 295.406 591.662 295.446 591.662 295.446C591.656 295.499 591.652 295.551 591.649 295.607C591.078 295.725 590.075 295.759 588.389 294.84C587.34 294.291 586.511 293.608 585.644 292.872C586.213 293.276 587.383 294.123 588.489 294.642C589.255 295.024 590.383 295.418 591.243 295.359Z" fill="white"/>
<path d="M534.268 284.656C535.004 284.191 535.64 283.523 536.227 282.852C538.047 280.716 539.046 278.189 539.9 275.64C539.251 278.388 538.314 280.865 536.485 283.07C535.889 283.781 535.286 284.337 534.762 284.709C535.162 284.737 535.646 284.659 535.969 284.569C536.5 284.436 537.022 284.24 537.519 283.995C538.549 283.511 539.568 282.79 540.363 282.225C539.596 282.877 538.714 283.619 537.618 284.194C537.121 284.464 536.593 284.691 536.041 284.855C535.482 284.995 534.914 285.116 534.28 284.945L533.951 284.855L534.268 284.656Z" fill="white"/>
<path d="M551.602 232.445L550.733 242.594L552.338 243.603L555.303 231.243L551.602 232.445Z" fill="#07085B"/>
<path d="M553.76 241.548C554.201 243.846 553.068 245.997 551.23 246.351C549.392 246.705 547.541 245.125 547.1 242.827C546.659 240.53 547.793 238.378 549.631 238.027C551.469 237.67 553.319 239.247 553.76 241.548Z" fill="#F99893"/>
<path d="M551.127 250.931C550.655 247.994 550.724 244.985 550.985 242.405C551.04 241.852 551.065 241.297 551.078 240.738C551.131 238.49 551.599 236.189 552.584 233.926C555.747 226.635 563.472 222.214 571.359 223.192C581.984 224.512 588.982 234.506 586.939 244.724C588.175 244.33 589.451 244.436 590.451 245.147C592.37 246.51 592.544 249.559 590.839 251.959C589.134 254.359 586.197 255.197 584.278 253.834C584.011 253.645 583.782 253.421 583.583 253.173C580.956 261.689 572.489 266.974 563.975 265.123C557.514 263.717 552.18 258.352 551.127 250.931Z" fill="#FFC0BB"/>
<path d="M570.769 242.812C570.353 243.861 571.11 244.994 572.259 244.991C572.886 244.988 573.464 244.591 573.697 244.007C574.116 242.955 573.358 241.818 572.203 241.824C571.579 241.831 570.999 242.231 570.769 242.812Z" fill="#333333"/>
<path d="M557.315 240.797C556.896 241.846 557.657 242.982 558.809 242.976C559.436 242.973 560.014 242.573 560.246 241.989C560.663 240.939 559.905 239.806 558.753 239.812C558.126 239.816 557.545 240.216 557.315 240.797Z" fill="#333333"/>
<path d="M568.673 253.868C567.838 254.284 566.9 254.592 566.133 254.741C565.258 254.912 564.364 254.964 563.488 254.843C562.612 254.725 561.771 254.421 561.001 253.977C560.237 253.524 559.554 252.931 558.936 252.269C559.567 253.154 560.135 253.67 560.874 254.185C561.637 254.685 562.451 255.008 563.448 255.16C564.367 255.281 565.304 255.213 566.189 254.983C567.074 254.744 567.928 254.387 568.673 253.868Z" fill="#F99893"/>
<path d="M569.49 239.604C570.313 239.459 571.089 239.365 571.853 239.353C572.613 239.341 573.349 239.421 574.051 239.614C574.746 239.812 575.436 240.073 576.069 240.489C576.932 240.98 577.553 241.582 578.003 241.88C577.715 241.151 577.252 240.284 576.615 239.775C576.004 239.16 575.187 238.741 574.34 238.505C573.483 238.272 572.576 238.266 571.738 238.462C570.906 238.664 570.108 239.024 569.49 239.604Z" fill="#07085B"/>
<path d="M563.205 238.57C562.805 237.825 562.168 237.226 561.442 236.766C560.709 236.313 559.846 236.028 558.961 235.975C558.082 235.925 557.176 236.062 556.4 236.45C555.636 236.729 554.915 237.406 554.412 237.999C554.977 237.85 555.685 237.496 556.691 237.304C557.424 237.111 558.163 237.086 558.887 237.12C559.613 237.164 560.337 237.322 561.051 237.577C561.768 237.828 562.473 238.167 563.205 238.57Z" fill="#07085B"/>
<path d="M565.947 240.564C565.205 241.259 564.528 242.014 563.885 242.796C563.243 243.582 562.643 244.405 562.113 245.283C561.808 245.811 561.426 246.513 561.336 247.112C561.284 247.444 561.311 247.767 561.864 248.311C562.227 248.696 562.637 249.009 563.056 249.298C563.482 249.58 563.92 249.844 564.379 250.059C563.612 249.4 562.836 248.745 562.227 247.991C562.131 247.876 561.945 247.603 561.88 247.45C561.846 247.339 561.904 247.093 561.985 246.885C562.15 246.451 562.386 246.016 562.64 245.594C563.14 244.74 563.708 243.914 564.264 243.079C564.835 242.253 565.401 241.421 565.947 240.564Z" fill="#F99893"/>
<path d="M553.493 221.608C553.493 221.608 548.162 220.581 554.729 217.361C561.296 214.141 577.398 212.266 585.815 219.479C585.815 219.479 588.647 215.846 591.19 217.442C593.733 219.038 588.541 220.801 588.541 220.801C588.541 220.801 592.096 221.487 592.78 223.459C593.286 224.918 591.112 224.487 589.945 224.161C591.876 224.956 597.558 230.321 590.181 244.976C588.874 244.364 580.431 232.32 580.431 232.32C580.431 232.32 563.46 237.897 566.552 233.27C566.552 233.27 546.774 238.244 551.568 229.278C551.565 229.284 544.275 228.185 553.493 221.608Z" fill="#07085B"/>
<path d="M590.178 244.976C590.178 244.976 588.898 243.995 586.942 244.721C584.986 245.448 583.741 249.835 583.741 249.835C583.741 249.835 577.336 255.079 580.459 232.221C583.527 209.763 587.778 235.959 587.778 235.959L590.178 244.976Z" fill="#07085B"/>
<path d="M546.312 173.998L543.542 173.725C544.027 173.461 544.61 173.33 545.228 173.389L614.626 180.214C618.255 180.571 620.944 183.471 620.627 186.688L620.264 190.389C619.947 193.609 616.746 195.928 613.117 195.571L544.498 188.802L546.312 173.998Z" fill="#E03268"/>
<path d="M614.439 189.818L614.802 186.117C615.119 182.897 612.433 180 608.801 179.643L610.291 179.789C613.921 180.146 616.61 183.046 616.293 186.262L615.93 189.963C615.613 193.183 612.412 195.503 608.782 195.146L607.31 195C610.934 195.347 614.123 193.031 614.439 189.818Z" fill="#FEB546"/>
<path d="M598.185 188.218L598.548 184.517C598.865 181.298 596.179 178.401 592.547 178.044L594.037 178.19C597.667 178.547 600.355 181.444 600.039 184.663L599.675 188.364C599.359 191.584 596.158 193.903 592.528 193.546L591.056 193.4C594.683 193.748 597.872 191.432 598.185 188.218Z" fill="#FEB546"/>
<path d="M585.756 177.389C589.228 177.73 591.798 180.503 591.494 183.58L591.081 187.762C590.78 190.839 587.719 193.059 584.247 192.717L541.046 188.47L541.139 187.535L541.319 187.554L552.391 187.712L555.369 180.211C555.369 180.211 551.503 175.523 551.236 175.386C550.969 175.249 542.642 174.091 542.642 174.091L542.465 174.073L542.558 173.141L585.756 177.389Z" fill="#FF5B7E"/>
<path d="M544.607 181.052C545.051 176.538 542.636 174.091 542.636 174.091L584.781 178.236C587.97 178.55 590.33 181.096 590.053 183.924L589.737 187.144C589.457 189.97 586.647 192.01 583.459 191.696L541.313 187.551C541.31 187.551 544.048 186.737 544.607 181.052Z" fill="#DAEEF7"/>
<path d="M590.05 183.924L589.734 187.144C589.693 187.566 589.591 187.973 589.445 188.355C588.327 185.132 585.893 181.894 580.801 180.431C568.912 177.013 542.632 174.094 542.632 174.094L584.778 178.239C587.97 178.55 590.33 181.096 590.05 183.924Z" fill="#DAEEF7"/>
<path d="M462.151 280.558L459.288 286.942C459.052 287.469 459.288 288.087 459.816 288.323L474.763 295.024C475.843 295.508 476.889 294.281 476.237 293.291L470.453 284.278C470.453 284.278 465.88 285.116 462.151 280.558Z" fill="#55769F"/>
<path d="M443.158 280.558L440.295 286.942C440.059 287.469 440.295 288.087 440.823 288.323L455.77 295.024C456.851 295.508 457.897 294.281 457.245 293.291L451.46 284.278C451.46 284.278 446.887 285.116 443.158 280.558Z" fill="#55769F"/>
<path d="M410.87 104.557L409.281 114.527L405.921 101.235C405.921 101.235 410.628 98.9528 410.836 99.7818C411.044 100.614 410.87 104.557 410.87 104.557Z" fill="#07085B"/>
<path d="M384.156 126.015L382.703 143.247L397.91 142.521L396.156 127.26L384.156 126.015Z" fill="#FFC0BB"/>
<path d="M396.991 134.519L396.156 127.26L384.156 126.015L383.653 131.983C386.037 134.361 390.328 136.826 396.991 134.519Z" fill="#F99893"/>
<path d="M406.315 114.403C405.399 116.294 405.887 118.42 407.399 119.15C408.911 119.883 410.879 118.942 411.795 117.051C412.711 115.16 412.224 113.034 410.712 112.304C409.197 111.571 407.231 112.512 406.315 114.403Z" fill="#F99893"/>
<path d="M408.523 115.788C408.604 115.294 408.709 114.806 408.827 114.322C409.299 112.36 409.426 110.258 409.097 108.066C408.042 101.015 402.366 95.3916 395.302 94.4167C385.786 93.1002 377.406 100.148 376.813 109.479C375.835 108.851 374.704 108.646 373.67 109.031C371.693 109.767 370.836 112.372 371.758 114.847C372.68 117.321 375.03 118.728 377.011 117.992C377.285 117.89 377.536 117.747 377.766 117.579C378.07 125.571 384.19 132.113 391.999 132.476C395.818 132.657 399.373 131.325 402.13 128.993C405.884 126.232 407.781 120.383 408.523 115.788Z" fill="#FFC0BB"/>
<path d="M396.678 110.578C396.709 111.509 396.715 112.416 396.765 113.307C396.824 114.176 396.917 115.108 397.268 115.722C397.622 116.219 397.904 116.536 397.913 117.144C397.935 117.759 397.609 118.312 397.206 118.647C396.377 119.346 395.299 119.411 394.408 119.194C395.318 119.032 396.187 118.722 396.693 118.129C396.929 117.834 397.084 117.505 397.029 117.194C396.991 116.853 396.886 116.784 396.473 116.213C396.181 115.716 396.088 115.213 396.032 114.726C395.985 114.238 395.995 113.763 396.038 113.291C396.128 112.36 396.327 111.444 396.678 110.578Z" fill="#F99893"/>
<path d="M391.278 111.58C391.381 112.546 390.53 113.325 389.577 113.13C388.984 113.009 388.521 112.499 388.459 111.897C388.36 110.935 389.207 110.161 390.157 110.351C390.75 110.469 391.213 110.981 391.278 111.58Z" fill="#333333"/>
<path d="M403.409 112.953C403.508 113.915 402.661 114.688 401.711 114.499C401.118 114.381 400.655 113.872 400.59 113.27C400.487 112.304 401.338 111.528 402.291 111.72C402.881 111.841 403.347 112.35 403.409 112.953Z" fill="#333333"/>
<path d="M388.906 121.411C389.279 121.733 389.667 122.035 390.077 122.302C390.48 122.575 390.903 122.823 391.34 123.034C392.213 123.457 393.138 123.764 394.094 123.879C395.048 124 396.019 123.916 396.951 123.668C397.882 123.407 398.77 122.978 399.609 122.46C398.696 123.227 397.945 123.609 397.035 123.941C396.078 124.261 395.122 124.366 394.048 124.248C393.045 124.118 392.076 123.783 391.207 123.286C390.341 122.789 389.546 122.171 388.906 121.411Z" fill="#F99893"/>
<path d="M393.067 108.606C392.343 108.382 391.666 108.212 390.993 108.109C390.322 108.007 389.664 107.988 389.024 108.066C388.388 108.15 387.745 108.289 387.13 108.569C386.658 108.715 385.513 109.388 385.214 109.522C385.565 108.876 386.074 108.187 386.702 107.805C387.326 107.33 388.108 107.06 388.9 106.96C389.695 106.864 390.508 106.982 391.232 107.271C391.946 107.56 392.604 107.997 393.067 108.606Z" fill="#07085B"/>
<path d="M399.314 109.308C399.885 108.802 400.618 108.5 401.379 108.348C402.142 108.205 402.962 108.249 403.726 108.497C404.483 108.749 405.198 109.168 405.719 109.755C406.262 110.252 406.626 111.031 406.843 111.73C406.573 111.54 405.583 110.658 405.148 110.422C404.598 110.028 403.996 109.767 403.387 109.562C402.773 109.361 402.124 109.252 401.447 109.224C400.767 109.196 400.068 109.23 399.314 109.308Z" fill="#07085B"/>
<path d="M392.53 206.857C392.53 206.857 389.359 228.371 410.144 232.119C430.931 235.866 456.795 234.748 456.795 234.748L460.393 284.166L471.245 284.719C471.245 284.719 499.186 216.054 460.511 205.32L425.755 205.491L411.445 204.47C411.445 204.47 396.963 200.893 396.793 201.573C396.619 202.256 392.871 207.199 392.53 206.857Z" fill="#070852"/>
<path d="M373.428 206.969C373.428 206.969 370.258 228.483 391.042 232.23C411.83 235.978 437.693 234.86 437.693 234.86L441.292 284.278L452.143 284.83C452.143 284.83 480.084 216.166 441.41 205.432L406.654 205.603L392.343 204.581C392.343 204.581 377.862 201.004 377.691 201.684C377.517 202.371 373.767 207.31 373.428 206.969Z" fill="#10116B"/>
<path d="M399.609 136.376C399.609 136.376 413.919 138.193 417.555 141.145C421.191 144.098 438.684 187.489 438.684 187.489L424.144 204.528L393.247 204.755C393.247 204.755 370.075 217.249 355.535 205.435C340.995 193.621 348.493 152.503 356.898 143.645C365.303 134.786 380.296 135.013 380.296 135.013C380.296 135.013 393.93 144.554 399.609 136.376Z" fill="#FF5B7E"/>
<path d="M371.894 157.958C372.407 160.324 372.72 162.724 372.944 165.131C373.068 166.335 373.121 167.543 373.189 168.751C373.226 169.962 373.254 171.173 373.236 172.384C373.189 174.805 373.056 177.237 372.64 179.633C372.233 182.021 371.643 184.418 370.531 186.579C371.28 184.275 371.649 181.909 371.916 179.537C372.18 177.162 372.27 174.765 372.301 172.371C372.351 169.977 372.292 167.577 372.217 165.174C372.134 162.774 372.022 160.371 371.894 157.958Z" fill="white"/>
<path d="M414.717 156.369C415.372 159.886 416.065 163.395 416.766 166.894C417.484 170.39 418.229 173.88 419.076 177.345C419.915 180.81 420.843 184.25 421.967 187.625C422.532 189.311 423.159 190.976 423.898 192.59C424.625 194.208 425.488 195.776 426.643 197.145C425.327 195.916 424.361 194.36 423.488 192.792C422.641 191.202 421.911 189.55 421.281 187.868C420.638 186.188 420.086 184.477 419.564 182.76C419.061 181.037 418.598 179.301 418.167 177.563C417.757 175.818 417.363 174.066 417.009 172.312C416.667 170.552 416.332 168.794 416.049 167.025C415.469 163.491 415.012 159.936 414.717 156.369Z" fill="white"/>
<path d="M445.707 164.218C443.062 160.104 421.405 153.118 421.405 153.118C421.405 159.793 421.405 160.082 421.405 160.082L443.45 167.788L445.707 164.218Z" fill="#EDEDED"/>
<path d="M444.148 163.938L418.999 152.341V156.844L443.527 165.692L444.148 163.938Z" fill="white"/>
<path d="M442.751 163.938L416.204 153.894V161.656L442.484 165.693L442.751 163.938Z" fill="#EDEDED"/>
<path d="M445.707 163.143C445.707 163.143 450.824 151.174 452.92 148.69C452.92 156.564 449.737 166.466 449.737 166.466L445.707 163.143Z" fill="white"/>
<path d="M447.943 163.674L454.146 147.995V155.465L449.883 165.693L447.943 163.674Z" fill="#EDEDED"/>
<path d="M449.883 163.938L456.646 148.693V154.127L449.883 163.938Z" fill="white"/>
<path d="M449.883 210.912L458.409 196.226V149.252L449.883 163.938V210.912Z" fill="#26426E"/>
<path d="M410.6 203.814L440.789 210.912V163.938L410.6 156.84V203.814Z" fill="#55769F"/>
<path d="M440.789 163.938C443.45 162.665 449.017 163.115 449.883 163.938C449.427 166.624 441.466 167.152 440.789 163.938Z" fill="#E0E0E0"/>
<path d="M440.789 210.912C440.789 212.061 449.923 212.061 449.923 210.912V163.938C448.998 165.304 441.82 165.267 440.789 163.938V210.912Z" fill="#3A5782"/>
<path d="M421.908 194.708C421.818 193.987 416.357 193.186 414.351 193.081C412.829 193.003 402.751 192.665 399.323 192.509L399.575 193.391L399.522 197.285L398.96 199.865C401.968 200.054 409.321 200.343 410.852 200.647C412.898 201.051 416.443 202.594 416.443 202.594C416.443 202.594 417.918 202.259 416.043 201.448C414.537 200.799 413.481 199.793 413.034 199.29C412.777 199.002 413.056 198.489 413.242 198.539C418.347 199.877 418.871 200.098 418.871 200.098C418.871 200.098 424.87 200.064 418.906 198.716C415.329 197.909 414.046 197.437 413.73 197.036C413.593 196.866 413.835 196.285 414.053 196.269C417.151 196.077 422.712 197.176 421.188 196.456C419.946 195.869 416.034 195.226 414.512 194.981C414.419 194.965 414.267 194.4 414.683 194.363C417.639 194.124 421.992 195.375 421.908 194.708Z" fill="#FFC0BB"/>
<path d="M368.401 185.986C369.659 186.29 370.898 186.644 372.158 186.905C373.41 187.203 374.683 187.421 375.94 187.688C378.474 188.15 381.014 188.551 383.563 188.908C386.115 189.243 388.667 189.55 391.229 189.799C393.781 190.053 396.373 190.268 398.901 190.411L399.239 190.429L399.314 190.724C399.531 191.581 399.671 192.416 399.779 193.273C399.885 194.127 399.932 194.987 399.929 195.847C399.922 196.707 399.848 197.57 399.705 198.424C399.55 199.275 399.295 200.11 398.957 200.908L398.929 200.976L398.873 201.014L396.066 202.895C395.131 203.522 394.194 204.147 393.247 204.758C394.126 204.053 395.013 203.361 395.908 202.672L398.581 200.607L398.497 200.713C398.78 199.939 398.975 199.142 399.084 198.325C399.183 197.508 399.23 196.682 399.205 195.853C399.177 195.028 399.096 194.202 398.982 193.379C398.86 192.562 398.699 191.733 398.485 190.96L398.898 191.274C397.563 191.24 396.299 191.153 395.001 191.059C393.709 190.963 392.421 190.861 391.135 190.727C388.562 190.46 385.994 190.14 383.438 189.734C380.883 189.321 378.343 188.824 375.825 188.228C374.571 187.908 373.317 187.598 372.081 187.209C370.836 186.852 369.616 186.418 368.401 185.986Z" fill="white"/>
<path d="M411.174 95.1276C411.174 95.1276 415.947 95.2798 410.939 91.2465C405.93 87.2133 392.489 82.4814 383.873 87.0301C383.873 87.0301 382.15 83.3663 379.66 84.2419C377.17 85.1175 381.281 87.6355 381.281 87.6355C381.281 87.6355 378.101 87.5331 377.129 89.0948C376.412 90.2467 378.359 90.2995 379.424 90.2467C377.614 90.5541 370.671 94.9382 374.155 108.935C375.394 108.662 382.451 98.4312 382.451 98.4312C382.451 98.4312 398.587 107.398 396.991 100.269C396.991 100.269 413.711 110.702 411.339 102.086C411.339 102.083 417.803 102.558 411.174 95.1276Z" fill="#07085B"/>
<path d="M374.139 109.019C374.139 109.019 375.474 108.55 376.912 109.69C378.35 110.829 378.191 114.837 378.191 114.837C378.191 114.837 385.05 119.262 384.327 100.543C383.556 80.6278 378.604 102.138 378.604 102.138L374.139 109.019Z" fill="#07085B"/>
<path d="M299.681 482.357L302.544 488.741C302.78 489.269 302.544 489.887 302.016 490.123L287.069 496.823C285.988 497.307 284.942 496.081 285.594 495.09L291.379 486.077C291.375 486.08 295.949 486.915 299.681 482.357Z" fill="#07085B"/>
<path d="M319.049 481.596L321.912 487.98C322.148 488.508 321.912 489.126 321.384 489.362L306.437 496.062C305.354 496.547 304.31 495.32 304.962 494.33L310.747 485.316C310.747 485.319 315.32 486.158 319.049 481.596Z" fill="#07085B"/>
<path d="M336.52 274.876C336.52 274.876 320.229 272.128 314.765 290.329L321.511 300.426C321.511 300.426 335.66 294.989 335.716 294.458C335.772 293.928 336.52 274.876 336.52 274.876Z" fill="#FF5500"/>
<path d="M362.741 283.076C362.741 283.076 367.492 290.223 369.917 293.055C376.015 300.184 376.8 297.945 380.588 304.077C384.677 310.694 380.542 314.839 378.188 316.745C375.835 318.652 379.772 325.706 375.388 329.662C369.65 334.838 364.343 329.957 360.397 332.857C356.451 335.757 355.588 340.054 346.233 339.243C336.878 338.43 336.968 307.844 336.968 307.844C336.968 307.844 344.624 291.627 344.929 291.493C345.233 291.357 362.741 283.076 362.741 283.076Z" fill="#FF5500"/>
<path d="M314.765 290.332C314.765 290.332 314.206 295.946 312.349 299.178C307.679 307.313 305.164 304.649 302.575 311.374C299.78 318.633 304.618 321.94 307.282 323.378C309.946 324.815 307.387 332.478 312.427 335.552C319.024 339.576 323.334 333.794 327.749 335.912C332.164 338.029 333.81 342.094 342.854 339.56C351.896 337.027 346.136 306.987 346.136 306.987C346.136 306.987 335.605 292.471 335.282 292.397C334.959 292.316 314.765 290.332 314.765 290.332Z" fill="#FF5500"/>
<path d="M338.402 326.554C338.402 326.554 354.017 323.682 361.195 323.924C368.374 324.166 356.845 342.836 356.845 342.836L345.118 343.097C345.118 343.097 337.93 335.067 338.402 334.133C338.874 333.198 338.38 327.072 338.38 327.072L338.402 326.554Z" fill="#FFC0BB"/>
<path d="M352.324 311.656L356.445 324.157C356.445 324.157 352.858 331.571 341.88 328.373C341.88 328.373 343.134 325.784 341.451 320.453C339.731 315.004 352.324 311.656 352.324 311.656Z" fill="#FFC0BB"/>
<path opacity="0.6" d="M352.324 311.656L354.256 317.497C353.104 321.766 349.369 324.672 342.32 325.573C342.324 324.303 342.128 322.607 341.448 320.453C339.731 315.004 352.324 311.656 352.324 311.656Z" fill="#FC8D84"/>
<path d="M327.203 302.503C328.094 304.534 327.501 306.757 325.877 307.471C324.253 308.185 322.213 307.117 321.322 305.087C320.431 303.056 321.024 300.833 322.648 300.119C324.272 299.408 326.309 300.473 327.203 302.503Z" fill="#F99893"/>
<path d="M326.746 311.722C325.694 309.107 325.122 306.319 324.821 303.879C324.756 303.357 324.663 302.839 324.557 302.32C324.135 300.234 324.082 298.01 324.514 295.713C325.902 288.317 332.102 282.607 339.591 281.853C349.679 280.834 358.245 288.587 358.509 298.451C359.565 297.827 360.767 297.656 361.841 298.104C363.899 298.957 364.704 301.736 363.636 304.31C362.567 306.884 360.031 308.278 357.975 307.421C357.69 307.303 357.432 307.145 357.196 306.956C356.566 315.373 349.859 322.033 341.606 322.117C335.406 322.182 329.305 318.425 326.746 311.722Z" fill="#FFC0BB"/>
<path d="M337.514 298.843C337.84 299.771 338.008 300.743 338.064 301.733C338.092 302.23 338.079 302.73 338.011 303.242C337.933 303.751 337.815 304.276 337.492 304.782C337.117 305.264 336.921 305.422 336.865 305.81C336.797 306.142 336.952 306.502 337.194 306.822C337.716 307.471 338.626 307.828 339.579 308.021C338.632 308.207 337.505 308.089 336.666 307.322C336.257 306.953 335.94 306.366 335.986 305.726C336.033 305.062 336.331 304.767 336.719 304.261C336.921 303.953 337.048 303.525 337.145 303.09C337.25 302.652 337.281 302.184 337.34 301.721C337.421 300.78 337.455 299.821 337.514 298.843Z" fill="#F99893"/>
<path d="M343.168 300.113C343.025 301.128 343.895 301.979 344.907 301.808C345.534 301.702 346.043 301.184 346.133 300.553C346.276 299.541 345.407 298.69 344.398 298.858C343.767 298.964 343.258 299.482 343.168 300.113Z" fill="#333333"/>
<path d="M330.323 301.087C330.18 302.1 331.047 302.947 332.056 302.786C332.686 302.683 333.195 302.165 333.285 301.535C333.431 300.519 332.562 299.668 331.55 299.836C330.919 299.936 330.41 300.454 330.323 301.087Z" fill="#333333"/>
<path opacity="0.3" d="M343.416 311.731C343.416 311.731 341.274 310.964 339.262 312.284C339.262 312.284 337.082 310.921 335.369 312.222C335.369 312.222 336.167 315.466 339.743 315.246C343.317 315.028 343.416 311.731 343.416 311.731Z" fill="#F99893"/>
<path d="M345.289 310.57C344.885 310.899 344.463 311.2 344.019 311.464C343.581 311.737 343.128 311.983 342.659 312.187C341.721 312.597 340.734 312.889 339.722 312.973C338.713 313.063 337.691 312.939 336.716 312.641C335.744 312.33 334.825 311.843 333.959 311.265C334.344 311.616 334.76 311.936 335.204 312.219C335.648 312.504 336.126 312.728 336.617 312.926C337.114 313.113 337.632 313.246 338.16 313.324C338.688 313.392 339.225 313.405 339.756 313.367C340.818 313.268 341.855 312.951 342.789 312.461C343.724 311.967 344.587 311.346 345.289 310.57Z" fill="#F99893"/>
<path d="M341.398 296.902C342.168 296.694 342.892 296.542 343.606 296.458C344.317 296.374 345.012 296.38 345.686 296.489C346.354 296.604 347.024 296.772 347.664 297.091C348.155 297.265 349.341 298.02 349.648 298.169C349.306 297.477 348.794 296.728 348.145 296.3C347.506 295.775 346.689 295.458 345.86 295.322C345.025 295.191 344.162 295.281 343.389 295.558C342.622 295.843 341.911 296.278 341.398 296.902Z" fill="#FF5500"/>
<path d="M334.782 297.402C334.198 296.846 333.44 296.498 332.642 296.312C331.841 296.132 330.975 296.144 330.162 296.377C329.354 296.613 328.581 297.026 328.013 297.625C327.42 298.128 327.007 298.933 326.749 299.665C327.041 299.479 328.122 298.585 328.588 298.355C329.184 297.961 329.829 297.709 330.478 297.514C331.134 297.324 331.823 297.234 332.54 297.231C333.254 297.225 333.993 297.29 334.782 297.402Z" fill="#FF5500"/>
<path d="M365.561 402.931C365.561 402.931 370.165 424.6 349.272 429.745C328.379 434.89 302.013 435.411 302.013 435.411L301.525 485.887L290.528 487.148C290.528 487.148 257.712 419.129 296.346 405.735L331.696 403.676L346.18 401.717C346.18 401.717 360.673 397.15 360.891 397.833C361.105 398.516 365.235 403.297 365.561 402.931Z" fill="#FFC0BB"/>
<path d="M384.988 401.819C384.988 401.819 389.592 423.488 368.7 428.633C347.807 433.778 321.44 434.303 321.44 434.303L320.953 484.779L309.955 486.04C309.955 486.04 277.139 418.021 315.774 404.626L351.123 402.568L365.607 400.609C365.607 400.609 380.101 396.041 380.318 396.724C380.535 397.404 384.665 402.189 384.988 401.819Z" fill="#FFC0BB"/>
<path d="M309.868 399.264C292.251 399.534 276.18 409.65 270.464 429.295C264.748 448.942 251.707 469.208 252.949 469.009C280.583 484.478 289.27 468.941 308.368 473.533C327.467 478.125 334.235 476.048 334.235 476.048C328.709 448.318 321.437 434.3 321.437 434.3C323.042 434.588 369.914 435.278 381.492 422.445C384.739 418.847 387.226 414.32 386.73 403.257C385.808 382.668 314.979 399.186 309.868 399.264Z" fill="#FEB546"/>
<path d="M315.122 435.75C315.724 435.641 316.326 435.539 316.919 435.399C317.515 435.262 318.102 435.101 318.683 434.927C318.975 434.837 319.267 434.737 319.555 434.632C319.254 434.57 318.962 434.483 318.67 434.377C318.096 434.176 317.559 433.884 317.056 433.551C316.568 433.194 316.109 432.806 315.705 432.362C315.302 431.921 314.954 431.437 314.647 430.931L315.246 431.58C315.46 431.782 315.659 431.993 315.882 432.179C316.308 432.577 316.786 432.909 317.273 433.21C317.764 433.508 318.285 433.747 318.823 433.936C319.357 434.117 319.934 434.25 320.465 434.269L321.443 434.303L320.577 434.706C319.987 434.98 319.403 435.16 318.801 435.327C318.202 435.495 317.593 435.613 316.985 435.719C316.373 435.818 315.761 435.905 315.146 435.948C314.532 435.995 313.917 436.023 313.302 436.02C313.911 435.933 314.519 435.858 315.122 435.75Z" fill="#DAEEF7"/>
<path d="M320.658 356.976C320.658 356.976 319.236 392.381 315.255 397.926L337.154 392.949V354.417L320.658 356.976Z" fill="#FFC0BB"/>
<path d="M329.503 361.81C329.503 361.81 333.034 370.721 333.586 375.456C334.962 387.211 333.468 395.501 331.034 402.192C327.622 411.578 354.032 408.007 354.669 408.02C382.575 408.684 382.318 407.545 382.318 407.545L386.773 403.968C386.152 392.502 384.566 382.585 384.814 372.36L385.069 361.81L383.789 351.145L344.286 348.033L329.503 361.81Z" fill="#FEB546"/>
<path d="M315.982 369.681C318.394 365.927 338.154 359.553 338.154 359.553C338.154 365.644 338.154 365.905 338.154 365.905L318.04 372.938L315.982 369.681Z" fill="#EDEDED"/>
<path d="M315.982 369.681C318.394 365.927 338.154 359.553 338.154 359.553C338.154 365.644 338.154 365.905 338.154 365.905L318.04 372.938L315.982 369.681Z" fill="#EDEDED"/>
<path d="M317.401 369.426L340.349 358.845V362.952L317.969 371.028L317.401 369.426Z" fill="white"/>
<path d="M318.677 369.426L342.898 360.264V367.346L318.922 371.028L318.677 369.426Z" fill="#EDEDED"/>
<path d="M315.982 368.703C315.982 368.703 311.312 357.783 309.399 355.516C309.399 362.701 312.302 371.733 312.302 371.733L315.982 368.703Z" fill="white"/>
<path d="M313.942 369.187L308.282 354.88V361.695L312.169 371.028L313.942 369.187Z" fill="#EDEDED"/>
<path d="M312.169 369.426L305.999 355.516V360.475L312.169 369.426Z" fill="white"/>
<path d="M312.169 412.283L306.509 399.255V356.395L312.169 369.426V412.283Z" fill="#F5577A"/>
<path d="M348.012 405.809L320.465 412.283V369.426L348.012 362.952V405.809Z" fill="#FF5B7E"/>
<path d="M320.465 369.426C318.037 368.265 312.957 368.675 312.169 369.426C312.585 371.876 319.847 372.357 320.465 369.426Z" fill="#E0E0E0"/>
<path d="M320.465 412.283C320.465 413.332 312.132 413.332 312.132 412.283V369.426C312.976 370.674 319.524 370.637 320.465 369.426V412.283Z" fill="#DE4B6C"/>
<path d="M393.34 352.7L374.59 361.384C374.59 361.384 373.13 385.37 372.227 386.432C370.587 388.354 353.961 393.855 345.205 395.467C343.795 395.725 342.345 395.613 340.995 395.138C336.651 393.604 328.963 390.844 327.752 390.431C325.849 389.785 320.478 388.518 320.127 389.151C319.801 389.741 324.309 390.185 326.961 391.502C327.333 391.688 326.985 392.16 326.892 392.138C325.389 391.803 321.515 390.955 320.145 391.042C318.462 391.151 324.036 392.182 326.846 393.505C327.041 393.598 327.054 394.228 326.864 394.337C326.42 394.591 325.057 394.557 321.434 393.986C315.392 393.036 320.956 395.284 320.956 395.284C320.956 395.284 321.524 395.271 326.765 395.914C326.957 395.939 327.026 396.516 326.681 396.69C326.082 396.988 324.728 397.535 323.089 397.584C321.049 397.643 322.297 398.5 322.297 398.5C322.297 398.5 326.163 398.376 328.215 398.755C329.749 399.037 336.691 401.484 339.557 402.419L339.911 401.978C343.885 402.903 380.514 405.579 384.96 394.712C393.135 374.732 393.34 352.7 393.34 352.7Z" fill="#FFC0BB"/>
<path d="M338.402 326.554C338.402 326.554 349.018 338.942 361.195 323.924C361.195 323.924 374.503 322.84 384.311 329.808C394.122 336.775 399.997 352.424 399.997 352.424C399.997 352.424 385.916 361.81 374.565 361.81L347.947 352.278L329.503 361.81C329.503 361.81 320.94 361.242 313.687 357.544C313.69 357.544 314.938 332.67 338.402 326.554Z" fill="#FEB546"/>
<path d="M371.329 347.692C371.786 349.229 372.199 350.778 372.609 352.327C373.372 355.37 374.077 358.27 374.593 361.384C375.555 361.428 376.639 361.288 377.589 361.152C382.712 360.239 386.078 358.804 390.642 356.938C397.479 353.824 396.557 354.125 399.997 352.427C395.995 354.957 393.84 356.1 390.924 357.556C386.928 359.41 383.109 361.124 377.732 362.071C375.381 362.39 374.704 362.322 373.813 362.22C373.466 359.934 373.068 357.596 371.978 352.476L370.963 347.788L369.917 343.1C370.423 344.618 370.873 346.155 371.329 347.692Z" fill="#07085B"/>
<path d="M329.14 350.573C328.83 352.172 328.619 354.283 328.69 356.255C328.724 357.174 329.404 359.748 330.186 362.356C330.041 362.412 329.895 362.465 329.749 362.521C328.842 359.894 328.063 357.267 327.963 356.311C327.724 354.336 327.889 352.343 328.221 350.405C328.594 348.452 329.084 346.633 329.826 344.748C330.531 342.923 331.363 341.147 332.406 339.495C331.711 341.314 331.078 343.143 330.516 344.984C329.957 346.832 329.466 348.688 329.14 350.573Z" fill="#07085B"/>
<path d="M358.506 298.451C358.506 298.451 340.277 294.055 331.568 281.666C331.568 281.666 331.416 270.386 348.151 272.945C364.412 275.432 368.218 291.257 358.506 298.451Z" fill="#FF5500"/>
</svg>
