<svg width="665" height="325" viewBox="0 0 665 325" fill="none" xmlns="http://www.w3.org/2000/svg">
<path d="M40.7802 324.838C40.7802 324.838 -40.9225 247.444 26.9638 163.655C87.1959 89.3101 157.421 94.3928 208.945 124.563C230.89 137.411 294.159 126.147 348.006 50.4974C421.441 -52.6664 675.997 9.90321 629.584 168.622C607.122 245.431 697.939 248.223 651.665 325L40.7802 324.838Z" fill="#EF6565"/>
<path d="M631.346 323.973H605.459C604.072 322.934 606.419 320.577 608.871 320.419C609.935 320.348 611.283 320.544 612.822 320.831C613.179 316.658 615.214 297.891 622.879 298.645C631.5 299.49 622.879 306.909 620.443 311.302C618.636 314.555 616.732 319.221 615.862 321.423C616.562 321.558 617.285 321.687 618.025 321.807C619.168 318.712 623.419 308.301 628.826 308.908C635.174 309.618 632.623 313.791 628.123 316.269C624.822 318.092 620.768 320.681 618.843 321.932C620.474 322.168 622.179 322.326 623.907 322.291C628.343 322.201 630.507 323.353 631.346 323.973Z" fill="#82B378"/>
<path d="M67.0626 323.161C66.0347 321.736 62.9405 318.039 58.8184 318.527C54.3292 319.059 63.777 321.671 66.6693 323.172C66.0268 323.179 65.4736 323.135 65.0697 323.008C63.1345 322.4 59.8227 323.566 58.7633 323.975H77.1765C77.048 323.586 76.7176 322.953 75.8601 322.49C75.5586 322.328 74.9502 322.305 74.1662 322.356C75.2623 321.217 76.0227 317.581 72.9731 318.515C70.7468 319.2 70.7521 321.421 70.9723 322.737C70.4977 322.802 70.0178 322.869 69.5432 322.929C68.6254 318.807 65.3844 306.728 58.8131 306.404C52.1501 306.078 64.464 318.932 68.5625 323.043C68.0355 323.098 67.5294 323.14 67.0626 323.161Z" fill="#82B378"/>
<path d="M535.774 295.857L533.771 303.288L531.115 313.141H522.813L522.32 303.702L521.937 296.422L535.774 295.857Z" fill="#FFB27D"/>
<path d="M562.08 134.129C562.08 134.129 568.649 127.929 572.92 132.789C577.192 137.652 581.925 140.935 588.478 144.673C595.031 148.412 582.686 177.726 574.478 177.122C566.268 176.523 532.769 153.414 562.08 134.129Z" fill="#BC3F3F"/>
<path d="M529.373 131.181C531.012 130.101 546.111 125.527 560.829 130.025C575.548 134.522 549.428 147.049 549.428 147.049L540.964 147.371L529.373 131.181Z" fill="#4A75CB"/>
<path d="M519.53 323.966C519.53 323.966 519.53 320.38 520.109 319.189C520.689 317.997 522.813 313.141 522.813 313.141H531.115C531.115 313.141 532.659 317.569 532.756 319.017C532.853 320.466 532.756 323.966 532.756 323.966H519.53Z" fill="#233862"/>
<path d="M572.241 323.966C572.241 323.966 572.241 320.38 571.662 319.189C571.082 317.997 568.958 313.141 568.958 313.141H560.656C560.656 313.141 559.112 317.569 559.015 319.017C558.918 320.466 559.015 323.966 559.015 323.966H572.241Z" fill="#233862"/>
<path d="M538.981 122.712C538.981 122.712 538.687 130.695 537.531 134.272L528.364 151.706L562.875 144.47L554.644 134.436C554.644 134.436 552.158 123.732 553.461 119.771C554.764 115.813 538.981 122.712 538.981 122.712Z" fill="#FFB27D"/>
<path d="M538.931 123.813C538.931 123.811 541.661 129.608 546.801 129.481C551.94 129.354 553.11 124.225 553.11 124.225L538.931 123.813Z" fill="#ED985F"/>
<path d="M535.863 119.121C535.863 119.121 534.204 111.811 533.045 109.597C531.886 107.383 530.921 97.5044 543.759 96.9931C543.759 96.9931 548.681 97.5044 551.384 96.0562C551.384 96.0562 551.384 97.5044 550.708 98.0157C550.708 98.0157 555.147 97.0787 558.624 100.486C562.099 103.894 556.309 115.818 556.597 118.626L535.863 119.121Z" fill="#2C3A64"/>
<path d="M546.211 127.241C542.487 127.184 535.63 122.807 535.63 117.388V108.933C535.63 106.955 537.193 105.335 539.104 105.335H553.314C555.226 105.335 556.789 106.955 556.789 108.933V116.91C556.791 122.594 550.482 127.309 546.211 127.241Z" fill="#FFB27D"/>
<path d="M535.633 113.449C535.633 113.449 535.651 108.368 540.214 107.586C544.774 106.804 554.982 110.062 556.432 106.358C557.882 102.654 536.7 102.717 535.635 105.081C534.565 107.445 535.633 113.449 535.633 113.449Z" fill="#2C3A64"/>
<path d="M551.536 201.496C553.82 195.222 553.776 227.467 544.603 263.735C543.203 269.271 540.069 282.618 537.82 295.536H519.029C518.769 285.104 517.503 270.541 516.703 259.636C514.201 225.448 520.571 199.789 520.571 199.789L551.536 201.496Z" fill="#2B478B"/>
<path d="M575.647 259.636C575.44 270.09 573.033 283.976 572.815 294.155H553.752C552.472 286.766 550.438 279.157 548.977 273.019C547.936 268.66 547.186 265.045 547.197 262.773C547.218 258.333 544.034 245.531 542.138 234.241C542.136 234.225 542.133 234.209 542.13 234.195C542.057 233.762 541.986 233.327 541.918 232.899C539.38 217.029 540.274 201.496 540.274 201.496L572.441 199.722C572.438 199.722 576.198 231.756 575.647 259.636Z" fill="#2B478B"/>
<path d="M518.025 212.939C518.025 212.939 525.262 220.675 544.923 219.557C564.584 218.44 573.964 215.421 573.964 215.421L518.025 212.939Z" fill="#233862"/>
<path d="M573.964 215.423C567.542 216.194 523.848 218.197 518.024 212.939C512.201 207.68 527.533 135.952 527.533 135.952C527.533 135.952 529.268 135.507 532.2 135.022C533.695 134.774 535.496 134.515 537.536 134.3C537.56 134.86 538.066 143.315 546.024 146.809C546.024 146.809 555.582 143.431 554.646 134.436C554.636 134.33 554.623 134.228 554.604 134.129C555.879 134.249 557.171 134.406 558.469 134.603C561.092 135.001 563.745 135.563 566.378 136.331C566.375 136.331 580.386 214.655 573.964 215.423Z" fill="#739AF0"/>
<path d="M518.392 178.392C518.132 178.69 519.876 180.897 522.333 183.736C527.388 189.566 535.475 198.049 535.475 198.049C535.368 200.925 534.912 202.78 534.912 202.78C523.804 198.149 516.294 193.818 511.314 190.339C504.316 185.446 502.307 182.237 502.307 182.237C513.53 140.349 527.929 135.989 527.929 135.989L532.628 161.228C532.628 161.231 519.178 177.485 518.392 178.392Z" fill="#739AF0"/>
<path d="M558.467 134.603L555.572 142.371L551.715 147.371L546.176 150.022L540.964 147.371L532.2 135.024C533.695 134.776 535.496 134.517 537.536 134.302C537.56 134.862 538.066 143.318 546.024 146.811C546.024 146.811 555.582 143.433 554.646 134.439C554.636 134.332 554.623 134.23 554.604 134.131C555.876 134.249 557.169 134.406 558.467 134.603Z" fill="#EE9849"/>
<path d="M535.475 198.052C535.473 198.133 535.47 198.214 535.465 198.292C535.441 198.822 535.404 199.319 535.36 199.768C535.082 200.108 534.773 200.428 534.437 200.728C533.926 201.184 533.375 201.566 532.811 201.89C532.531 201.772 532.247 201.649 531.972 201.529C522.459 197.374 515.838 193.506 511.312 190.343C514.186 189.564 518.211 187.78 522.33 183.736C527.388 189.566 535.475 198.052 535.475 198.052Z" fill="#FFB27D"/>
<path d="M590.641 180.698C590.641 180.698 588.703 183.942 581.812 188.951C576.909 192.513 569.496 196.969 558.488 201.788C558.488 201.788 557.992 199.939 557.822 197.066C557.822 197.066 565.722 188.446 570.652 182.533C573.046 179.653 574.74 177.418 574.475 177.124C573.849 176.43 565.418 166.647 561.655 162.283C560.565 161.016 559.867 160.206 559.867 160.206L564.629 135.389C564.632 135.389 578.511 139.01 590.641 180.698Z" fill="#739AF0"/>
<path d="M581.812 188.95C577.339 192.199 570.775 196.192 561.301 200.529C561.068 200.636 560.829 200.744 560.588 200.853C559.379 199.565 558.642 198.028 558.197 196.661C558.354 196.488 558.561 196.259 558.81 195.986C561.081 193.487 566.782 187.176 570.652 182.533C574.856 186.505 578.923 188.219 581.812 188.95Z" fill="#FFB27D"/>
<path d="M554.602 134.129C548.227 133.527 542.248 133.8 537.534 134.3C537.531 134.281 537.531 134.272 537.531 134.272C537.531 134.272 553.33 125.652 554.602 134.129Z" fill="#FFB27D"/>
<path d="M538.759 158.508H538.434L538.195 145.074H539.016L538.759 158.508Z" fill="#BBD4FF"/>
<path d="M538.402 158.158C538.105 158.552 537.442 159.85 537.882 159.988C538.323 160.125 539.096 160.134 539.304 159.951C539.511 159.769 538.96 157.418 538.402 158.158Z" fill="#EE9849"/>
<path d="M553.713 158.508H553.388L553.15 145.074H553.97L553.713 158.508Z" fill="#BBD4FF"/>
<path d="M553.356 158.158C553.06 158.552 552.396 159.85 552.837 159.988C553.277 160.125 554.051 160.134 554.258 159.951C554.465 159.769 553.912 157.418 553.356 158.158Z" fill="#EE9849"/>
<path d="M540.961 147.371L527.533 135.954C527.533 135.954 524.509 134.062 529.287 131.23C534.067 128.398 540.961 147.371 540.961 147.371Z" fill="#4A75CB"/>
<path d="M551.712 147.371L565.14 135.954C565.14 135.954 568.164 134.062 563.386 131.23C558.608 128.398 551.712 147.371 551.712 147.371Z" fill="#4A75CB"/>
<path d="M568.568 202.954C565.951 203.148 563.769 202.57 562.085 201.244C561.802 201.02 561.543 200.781 561.301 200.532C559.975 199.162 559.23 197.441 558.81 195.988C558.33 194.329 558.278 193.022 558.278 192.997L558.267 192.661H536.577L536.59 193.018C536.674 195.074 536.299 196.842 535.465 198.295C535.053 199.021 534.526 199.671 533.886 200.238C533.296 200.763 532.643 201.186 531.975 201.529C529.072 203.012 525.841 202.954 525.799 202.954L525.398 202.942V211.028H568.99V202.924L568.568 202.954Z" fill="#678FE5"/>
<path d="M574.475 177.124C574.475 177.124 562.384 163.128 571.955 159.051C575.755 157.434 581.104 176.643 578.236 178.447C575.369 180.254 570.65 182.531 570.65 182.531L574.475 177.124Z" fill="#678FE5"/>
<path d="M519.784 174.818C519.784 174.818 523.985 157.242 520.298 159.054C516.611 160.863 511.149 176.645 514.018 178.45C516.884 180.257 521.604 182.533 521.604 182.533L519.784 174.818Z" fill="#678FE5"/>
<path d="M572.781 177.085C567.259 171.037 565.198 161.219 565.479 151.086C565.691 143.477 566.874 136.611 566.95 136.37L571.478 139.482C571.46 139.54 568.88 143.702 568.68 151.107C568.497 157.879 568.135 163.033 572.472 174.82L572.781 177.085Z" fill="#BC3F3F"/>
<path d="M530.858 299.277L521.129 299.272C520.269 299.358 518.921 298.245 518.921 296.656C518.921 296.656 518.9 292.843 518.615 292.165C517.364 289.195 519.225 289.033 521.027 289.033H538.777C540.578 289.033 537.817 293.947 537.817 295.538L538.457 297.623C538.457 299.212 532.662 299.277 530.858 299.277Z" fill="#233862"/>
<path d="M533.771 303.288L531.114 313.141H522.813L522.32 303.702C523.555 304.103 527.721 305.125 533.771 303.288Z" fill="#233862"/>
<path d="M556.015 295.857L558.016 303.175L560.672 312.882H568.974L569.467 303.584L569.85 296.413L556.015 295.857Z" fill="#FFB27D"/>
<path d="M560.929 299.277L570.657 299.272C571.518 299.358 572.865 298.245 572.865 296.656C572.865 296.656 572.886 292.843 573.172 292.165C574.423 289.195 572.561 289.033 570.76 289.033H553.01C551.209 289.033 553.97 293.947 553.97 295.538L553.33 297.623C553.33 299.212 559.128 299.277 560.929 299.277Z" fill="#233862"/>
<path d="M558.016 303.288L560.672 313.141H568.974L569.467 303.702C568.232 304.103 564.068 305.125 558.016 303.288Z" fill="#233862"/>
<path d="M145.225 104.065C144.572 103.438 143.112 102.728 141.187 102.147C144.565 100.806 147.441 99.2256 145.453 98.2609C144.593 97.8421 143.568 97.9023 142.485 98.2493C144.15 96.7641 144.95 95.487 143.327 95.1516C140.862 94.6426 138.295 97.4442 136.504 100.028C137.665 97.812 138.263 95.6166 136.097 95.5842C133.601 95.5472 133.113 98.4691 133.155 100.998C132.948 100.998 132.741 101.002 132.534 101.009C131.831 98.2146 130.465 94.7375 128.139 95.6652C126.967 96.1325 127.009 97.1365 127.622 98.2956C126.521 97.5506 125.433 97.2938 124.57 98.0827C123.254 99.2857 124.872 100.711 127.014 101.905C125.498 102.39 124.064 103.094 122.798 104.07C115.529 109.671 123.453 122.353 123.453 122.353L144.208 121.884C150.716 112.745 147.58 106.323 145.225 104.065Z" fill="#2C3A64"/>
<path d="M124.056 191.366L111.661 192.745C103.511 193.651 96.1429 189.506 95.2906 183.532L90.5759 150.529C89.7211 144.555 93.2899 139.847 101.484 139.551C106.341 139.376 114.443 138.432 123.162 135.873C130.892 133.603 131.758 139.882 132.61 145.856L137.325 178.859C138.177 184.83 132.206 190.459 124.056 191.366Z" fill="#2B478B"/>
<path d="M107.665 324.968C107.665 324.968 107.665 321.451 108.234 320.281C108.803 319.11 110.885 314.349 110.885 314.349H119.027C119.027 314.349 120.543 318.693 120.637 320.114C120.731 321.534 120.637 324.968 120.637 324.968H107.665Z" fill="#233862"/>
<path d="M159.367 324.968C159.367 324.968 159.367 321.451 158.798 320.281C158.229 319.11 156.147 314.349 156.147 314.349H148.005C148.005 314.349 146.489 318.693 146.395 320.114C146.301 321.534 146.395 324.968 146.395 324.968H159.367Z" fill="#233862"/>
<path d="M126.744 127.568C126.744 127.568 126.458 135.399 125.32 138.908L116.329 144.442L150.176 148.912L142.105 139.07C142.105 139.07 139.669 128.569 140.946 124.685C142.226 120.801 126.744 127.568 126.744 127.568Z" fill="#B56F40"/>
<path d="M126.694 128.65C126.694 128.648 129.371 134.335 134.414 134.21C139.456 134.085 140.602 129.055 140.602 129.055L126.694 128.65Z" fill="#99592E"/>
<path d="M133.835 132.012C130.182 131.954 123.458 127.663 123.458 122.349V114.055C123.458 112.114 124.992 110.527 126.867 110.527H140.804C142.679 110.527 144.213 112.114 144.213 114.055V121.879C144.213 127.452 138.025 132.077 133.835 132.012Z" fill="#B56F40"/>
<path d="M108.685 203.169C108.685 203.169 110.109 241.549 107.979 263.451C105.85 285.35 107.995 315.827 107.995 315.827C107.995 315.827 114.808 319.142 122.194 315.827C122.194 315.827 130.294 273.519 130.242 263.451C130.187 252.728 139.058 204.844 139.058 204.844L108.685 203.169Z" fill="#EE9849"/>
<path d="M159.071 315.825C159.071 315.825 152.258 319.14 144.874 315.825C144.874 315.825 136.777 273.519 136.827 263.448C136.85 258.921 135.282 247.761 133.46 236.383C130.969 220.818 128.008 204.842 128.008 204.842L159.558 203.102C159.558 203.102 156.957 241.549 159.086 263.446C161.218 285.35 159.071 315.825 159.071 315.825Z" fill="#EE9849"/>
<path d="M153.611 140.928V140.944C149.515 140.035 145.663 139.436 142.105 139.07C138.964 142.751 136.708 143.607 133.837 144.609C129.217 144.044 125.323 139.022 125.323 138.908C118.613 139.514 114.816 140.761 114.816 140.761C112.262 141.705 108.91 159.306 108.389 169.083C108.323 170.311 108.302 171.412 108.331 172.345C108.604 180.731 108.986 188.879 107.762 197.906C106.152 209.767 108.879 209.556 108.879 209.556C108.879 209.556 112.55 210.19 117.669 210.789C122.299 211.335 128.113 211.854 133.465 211.854C145.737 211.854 159.186 209.556 159.186 209.556C163.056 209.598 158.1 188.303 157.377 175.489C157.209 172.513 157.052 169.795 156.907 167.315C161.556 170.85 175.239 177.291 175.551 178.112C175.551 178.112 172.565 182.919 171.657 185.483C168.175 195.324 162.183 201.829 162.183 201.829C162.999 204.559 162.771 205.769 162.771 205.769C172.247 199.201 178.357 193.612 182.256 189.328C187.739 183.301 188.864 179.845 188.864 179.845C167.761 141.953 153.611 140.928 153.611 140.928Z" fill="#74ACBE"/>
<path d="M117.666 210.787C112.547 210.188 108.876 209.554 108.876 209.554C108.876 209.554 106.149 209.765 107.759 197.904C108.984 188.876 108.601 180.726 108.328 172.342C108.297 171.41 108.32 170.306 108.386 169.08C109.17 170.188 117.907 182.637 120.259 191.891C121.972 198.639 119.389 206.588 117.666 210.787Z" fill="#578E9B"/>
<path d="M136.829 263.448C136.853 258.921 135.285 247.761 133.462 236.383C135.35 229.586 139.952 223.046 139.952 223.046C145.776 237.457 136.829 263.448 136.829 263.448Z" fill="#E58638"/>
<path d="M162.181 201.829C162.181 201.829 157.067 197.654 154.985 199.993C152.903 202.331 152.523 206.008 154.133 205.755C155.743 205.506 159.058 204.168 159.53 204.837C160.004 205.506 162.123 206.783 162.768 205.767C163.41 204.754 162.181 201.829 162.181 201.829Z" fill="#B56F40"/>
<path d="M162.18 201.829C162.996 204.559 162.768 205.769 162.768 205.769C172.245 199.201 178.354 193.612 182.253 189.328C179.314 189.136 176.595 188.555 171.655 185.483C167.574 196.458 162.18 201.829 162.18 201.829Z" fill="#B56F40"/>
<path d="M174.366 177.263C173.608 176.705 161.454 170.804 156.852 167.276C156.852 167.276 161.446 164.238 164.286 168.666C167.126 173.094 174.366 177.263 174.366 177.263Z" fill="#578E9B"/>
<path d="M188.859 179.842C188.859 179.842 187.734 183.299 182.251 189.325C175.908 189.249 188.859 179.842 188.859 179.842Z" fill="#578E9B"/>
<path d="M123.458 117.419C123.458 117.419 125.994 110.589 134.301 111.656C142.608 112.72 143.329 114.286 144.211 116.105C145.094 117.921 146.799 109.463 146.799 109.463L136.999 106.895C136.999 106.895 125.142 108.086 124.29 109.84C123.437 111.593 123.437 111.593 123.437 111.593L123.458 117.419Z" fill="#2C3A64"/>
<path d="M108.467 190.172L108.609 184.351C118.012 178.052 121.835 170.589 122.197 157.677C122.472 147.887 118.744 139.903 118.717 139.822C118.717 139.822 120.38 139.47 120.946 139.385C121.557 139.292 123.427 139.103 123.427 139.103C123.54 139.445 126.018 147.403 125.748 157.666C125.386 171.424 118.649 183.352 108.467 190.172Z" fill="#2B478B"/>
<path d="M134.535 188.488C131.359 188.909 115.086 192.24 103.488 193.533C96.9505 194.26 91.8975 194.343 91.5068 192.89C90.4291 188.86 94.0976 163.186 99.932 152.851C105.764 142.515 116.575 140.285 116.575 140.285L119.651 156.648L104.017 184.118L107.825 184.178L133.95 184.587L134.535 188.488Z" fill="#74ACBE"/>
<path d="M142.726 189.95H136.845C136.132 189.95 135.549 189.436 135.549 188.807V179.421C135.549 178.792 136.132 178.279 136.845 178.279H142.726C143.437 178.279 144.022 178.792 144.022 179.421V188.807C144.022 189.436 143.437 189.95 142.726 189.95Z" fill="#233862"/>
<path d="M142.726 190.889H136.845C136.132 190.889 135.549 190.376 135.549 189.746V180.361C135.549 179.731 136.132 179.218 136.845 179.218H142.726C143.437 179.218 144.022 179.731 144.022 180.361V189.746C144.022 190.376 143.437 190.889 142.726 190.889Z" fill="#2B478B"/>
<path d="M130.895 185.487C130.895 185.487 139.491 180.261 142.307 182.077C145.126 183.891 145.349 188.217 133.664 188.573L130.895 185.487Z" fill="#B56F40"/>
<path d="M134.535 188.488C131.359 188.909 115.086 192.24 103.488 193.533C104.503 189.168 106.102 186.198 107.825 184.176L133.95 184.585L134.535 188.488Z" fill="#B56F40"/>
<path d="M142.941 118.166C142.501 117.692 141.775 117.419 140.951 117.419H136.766C135.972 117.419 135.416 117.62 135.114 118.018C134.975 118.203 134.904 118.413 134.878 118.631C134.175 118.476 133.494 118.554 133.019 118.659C132.995 118.432 132.925 118.21 132.78 118.018C132.481 117.62 131.923 117.419 131.128 117.419H126.943C126.117 117.419 125.391 117.692 124.953 118.166C124.555 118.596 124.418 119.158 124.562 119.79C125.04 121.877 127.761 122.143 129.122 122.143C129.542 122.143 129.833 122.117 129.885 122.113C131.16 122.11 132.054 121.469 132.707 120.098C132.817 119.864 132.995 119.422 133.024 118.964C133.475 118.858 134.17 118.76 134.868 118.932C134.889 119.404 135.072 119.859 135.185 120.098C135.835 121.469 136.732 122.11 138.006 122.113C138.062 122.117 138.35 122.143 138.77 122.143C140.13 122.143 142.852 121.877 143.33 119.79C143.476 119.156 143.343 118.596 142.941 118.166ZM132.455 120C131.852 121.275 131.034 121.867 129.88 121.867H129.864C129.854 121.867 128.726 121.983 127.544 121.772C125.991 121.493 125.079 120.81 124.835 119.739C124.707 119.181 124.822 118.689 125.168 118.316C125.556 117.897 126.204 117.659 126.946 117.659H131.131C131.829 117.659 132.308 117.823 132.552 118.15C132.678 118.318 132.736 118.517 132.749 118.723C132.537 118.783 132.4 118.837 132.382 118.844C132.298 118.876 132.264 118.964 132.301 119.036C132.329 119.089 132.387 119.121 132.45 119.121C132.474 119.121 132.495 119.117 132.518 119.107C132.521 119.105 132.605 119.073 132.741 119.031C132.696 119.45 132.531 119.838 132.455 120ZM143.062 119.741C142.818 120.81 141.906 121.495 140.353 121.775C139.171 121.988 138.043 121.872 138.033 121.87H138.017C136.866 121.87 136.048 121.277 135.442 120.003C135.363 119.836 135.193 119.436 135.153 119.013C135.232 119.04 135.313 119.073 135.392 119.11C135.473 119.147 135.573 119.121 135.615 119.05C135.657 118.978 135.628 118.89 135.547 118.853C135.416 118.793 135.285 118.744 135.151 118.705C135.167 118.508 135.224 118.316 135.345 118.157C135.591 117.83 136.069 117.666 136.766 117.666H140.951C141.693 117.666 142.341 117.907 142.729 118.323C143.075 118.691 143.191 119.184 143.062 119.741Z" fill="#2C3A64"/>
<path d="M130.494 126.652C130.494 126.652 135.091 126.21 137.23 126.652C137.23 126.652 136.092 128.299 134.225 128.299C132.358 128.296 130.947 127.695 130.494 126.652Z" fill="#FFF0E6"/>
<path d="M341.571 113.9C339.329 113.25 336.896 113.567 335.23 113.955C335.574 113.483 336.395 113.187 336.395 113.187C335.317 113.236 333.196 114.566 333.196 114.566C317.528 112.209 319.557 131.503 320.866 135.836C322.172 140.169 314.604 152.731 309.383 158.859C294.73 176.055 318.16 193.964 318.16 193.964C337.152 208.036 328.523 180.747 328.523 180.747C327.345 177.268 341.616 155.257 350.009 147.933C351.666 144.456 351.268 138.901 351.234 138.466C351.805 142.823 351.525 145.374 351.092 146.86C357.758 138.749 347.513 115.623 341.571 113.9Z" fill="#163560"/>
<path d="M380.563 177.3C380.563 179.165 379.501 181.552 377.983 184.011C374.204 190.14 367.599 196.712 367.599 196.712L363.77 191.902C363.77 191.902 366.096 186.808 367.641 182.607C368.569 180.081 369.212 177.881 368.9 177.3C368.063 175.755 351.485 158.455 351.485 158.455L346.98 145.069C346.98 145.069 358.007 145.583 362.703 151.648C367.4 157.717 380.563 172.277 380.563 177.3Z" fill="#BC3F3F"/>
<path d="M377.98 184.011C374.202 190.14 367.596 196.712 367.596 196.712L363.768 191.902C363.768 191.902 366.094 186.808 367.638 182.607C369.497 183.576 372.712 184.499 377.98 184.011Z" fill="#FFB27D"/>
<path d="M332.162 297.944L336.13 312.686L342.072 312.655L342.289 297.944H332.162Z" fill="#FFB27D"/>
<path d="M382.144 298.573L393.433 312.686L397.83 307.702L391.039 296.632L382.144 298.573Z" fill="#FFB27D"/>
<path d="M347.77 149.393C347.82 149.411 343.005 151.618 339.384 150.744C335.978 149.925 333.751 146.027 333.799 146.02C335.241 145.768 335.658 144.019 335.626 136.502L336.279 136.616L347.245 138.531C347.245 138.531 346.996 141.576 346.988 144.444C346.981 146.853 347.146 149.136 347.77 149.393Z" fill="#FFB27D"/>
<path d="M330.18 119.144C330.18 119.144 334.344 113.22 342.082 116.762C342.082 116.762 338.073 116.859 330.18 119.144Z" fill="#5FABB7"/>
<path d="M347.245 138.531C347.245 138.531 346.996 141.576 346.988 144.444C340.852 144.292 337.609 139.352 336.279 136.616L347.245 138.531Z" fill="#EF9E67"/>
<path d="M334.022 136.953C334.022 136.953 329.865 133.12 328.25 129.497C327.096 126.911 326.375 116.692 338.028 116.109C338.028 116.109 341.382 115.811 344.896 117.104C347.689 118.131 351.96 120.664 349.975 130.048L349.613 133.162L334.022 136.953Z" fill="#163560"/>
<path d="M396.774 304.477C396.774 304.477 393.858 304.922 391.466 305.081C390.934 305.116 390.43 305.137 389.99 305.137C388.839 305.137 386.762 304.755 385.367 304.468L385.262 304.447C384.651 304.32 384.184 304.216 384.009 304.174L383.935 304.158C383.935 304.158 369.4 289.882 361.251 266.999C361.062 266.465 360.86 265.928 360.647 265.385C356.184 253.908 346.936 239.502 342.061 226.461C341.285 224.386 340.588 222.428 339.963 220.58C339.762 219.988 339.568 219.407 339.381 218.833C335.789 207.821 334.751 200.594 333.791 192.869L363.097 199.447C363.102 199.447 375.405 246.505 396.774 304.477Z" fill="#A53D38"/>
<path d="M349.162 140.06C349.162 140.06 334.979 142.797 333.18 134.978C331.384 127.158 328.342 122.244 337.323 120.167C346.304 118.087 348.753 120.757 350.075 123.237C351.394 125.719 352.807 139.147 349.162 140.06Z" fill="#FFB27D"/>
<path d="M343.763 118.823C343.763 118.823 341.962 128.692 336.292 131.112C330.623 133.532 327.705 132.581 327.705 132.581C327.705 132.581 331.557 128.551 331.226 122.77C331.229 122.77 339.827 114.978 343.763 118.823Z" fill="#163560"/>
<path d="M342.969 119.739C342.969 119.739 346.346 121.27 347.51 123.135C348.674 125 349.931 129.044 351.252 128.664C351.252 128.664 352.762 121.904 348.659 118.964C344.306 115.845 342.969 119.739 342.969 119.739Z" fill="#163560"/>
<path d="M335.931 311.862C335.931 311.862 336.408 314.782 335.175 317.905C335.175 317.905 334.203 321.814 338.566 321.886C342.929 321.958 344.002 321.595 343.506 319.198C343.013 316.801 342.072 312.655 342.072 312.655L335.931 311.862Z" fill="#FFB27D"/>
<path d="M335.173 317.905C335.173 317.905 334.205 322.011 334.698 323.973C334.698 323.973 336.174 324.429 339.345 324.429C342.35 324.429 344.117 323.973 344.117 323.973C344.117 323.973 344.007 319.512 343.204 317.805C343.207 317.805 340.113 321.9 335.173 317.905Z" fill="#C45446"/>
<path d="M408.348 319.591C408.348 319.591 400.303 311.712 397.833 307.702L391.849 310.407L405.222 321.488L408.351 321.125L408.348 319.591Z" fill="#FFB27D"/>
<path d="M413.459 324.209C413.459 324.209 404.813 324.209 403.332 324.063C401.85 323.92 400.657 322.03 399.05 319.196C398.391 318.037 396.918 317.398 395.405 317.046L395.434 323.973H393.055L390.957 316.635C389.531 314.323 390.845 312.23 391.846 310.407C393.013 310.404 396.149 311.108 402.094 317.016C404.048 318.955 406.206 319.649 408.345 319.591C408.374 319.61 408.406 319.621 408.434 319.633C413.377 321.592 413.459 324.209 413.459 324.209Z" fill="#C45446"/>
<path d="M391.466 305.081C390.934 305.116 390.43 305.137 389.99 305.137C388.839 305.137 386.762 304.755 385.367 304.468L385.262 304.447L384.009 304.174L383.935 304.158C383.935 304.158 369.4 289.882 361.251 266.999C361.062 266.465 360.86 265.928 360.647 265.385C356.184 253.908 346.936 239.502 342.061 226.461C341.285 224.386 340.588 222.428 339.964 220.58C339.762 219.988 339.568 219.407 339.381 218.833L344.563 215.363C344.563 215.363 360.126 237.593 364.94 258.514C368.939 275.853 386.13 298.335 391.466 305.081Z" fill="#912F2F"/>
<path d="M345.111 260.464C345.2 270.636 344.615 294.025 343.115 303.712C343.115 303.712 341.692 304.822 338.159 304.836C334.543 304.85 332.926 303.672 332.926 303.672C329.157 286.835 326.477 272.906 324.527 260.901C322.924 251.05 321.503 242.604 320.41 235.333C319.439 228.89 318.729 223.37 318.388 218.609C318.343 217.963 318.301 217.33 318.27 216.714C318.228 215.898 318.194 215.106 318.178 214.338C318.162 213.563 318.157 212.811 318.165 212.08L318.291 212.071L325.57 211.447L348.575 209.466C348.184 227.289 345.061 254.551 345.111 260.464Z" fill="#A53D38"/>
<path d="M338.157 304.834C335.081 304.991 332.923 303.67 332.923 303.67C329.155 286.833 326.475 272.903 324.524 260.899C322.922 251.048 321.501 242.602 320.407 235.331C319.437 228.888 318.726 223.368 318.385 218.607C318.346 216.261 318.317 214.014 318.286 212.066C318.252 210.091 318.218 208.421 318.155 207.257L325.565 211.442L333.363 215.842C333.363 215.842 322.303 224.719 325.019 241.501C327.736 258.282 334.376 302.458 338.157 304.834Z" fill="#912F2F"/>
<path d="M367.148 214.017C358.324 216.041 317.145 220.034 316.788 210.935C316.699 208.714 316.788 206.035 316.988 203.134C317.601 194.147 319.274 183.037 320.077 176.928C320.444 174.126 319.222 161.578 320.161 154.742C320.297 153.728 320.483 152.84 320.73 152.127C322.507 146.968 330.5 145.569 334.604 145.446L346.983 145.074C346.983 145.074 359.766 157.673 361.547 161.543C363.325 165.413 363.907 178.665 365.289 185.08C366.668 191.495 371.438 213.034 367.148 214.017Z" fill="#BC3F3F"/>
<path d="M342.827 183.264C342.827 183.264 335.944 201.913 316.988 203.132C317.601 194.144 319.274 183.035 320.077 176.925C320.444 174.124 319.222 161.575 320.161 154.739C320.407 154.785 320.63 154.906 320.889 154.95C341.762 158.508 344.723 179.377 342.827 183.264Z" fill="#A53D38"/>
<path d="M359.636 164.433L337.648 162.38L334.061 191.899L356.049 193.952L359.636 164.433Z" fill="#2B478B"/>
<path d="M337.638 162.381L336.227 162.281L332.915 191.78L334.074 191.902L337.638 162.381Z" fill="#163560"/>
<path d="M319.099 175.449C319.099 175.449 334.612 179.632 349.435 181.501C349.435 181.501 354.328 183.368 352.031 183.879C351.443 184.011 321.755 189.721 317.352 186.017L319.099 175.449Z" fill="#FFB27D"/>
<path d="M334.601 145.444C334.601 145.444 326.446 145.483 322.964 148.988C316.605 155.387 315.349 182.6 317.352 186.017C318.215 187.486 324.833 187.606 327.623 180.49C329.071 176.798 335.396 152.155 334.601 145.444Z" fill="#BC3F3F"/>
<path d="M347.974 181.312C347.974 181.312 349.797 181.161 350.143 180.648C350.835 179.62 351.929 179.632 352.839 179.498C353.751 179.361 354.774 178.482 354.955 178.658C355.136 178.836 354.283 179.805 353.806 180.169C353.806 180.169 354.784 180.222 355.432 179.949C356.08 179.676 358.051 177.427 358.364 178.373C359.182 180.863 358.332 183.255 356.069 183.449C353.628 183.66 347.568 184.691 347.568 184.691L347.974 181.312Z" fill="#FFB27D"/>
<path d="M424.189 192.869C412.601 190.267 399.865 174.408 399.865 174.408L403.127 171.912C406.505 175.426 420.549 181.476 420.549 181.476C420.473 178.26 420.57 175.329 420.798 172.659C422.356 154.517 430.11 148.474 432.223 147.146C432.564 146.931 432.761 146.841 432.761 146.841C432.761 146.841 432.769 146.973 432.782 147.223C432.813 147.762 432.868 148.849 432.926 150.339C433.359 161.441 433.873 195.044 424.189 192.869Z" fill="#D9935C"/>
<path d="M403.127 171.912C403.077 171.484 402.752 165.251 401.349 164.065C399.946 162.878 397.175 161.263 396.378 161.393C395.58 161.524 392.877 165.492 394.154 168.227C395.431 170.961 399.865 174.41 399.865 174.41L403.127 171.912Z" fill="#D9935C"/>
<path d="M406.006 172.636L398.376 172.918C398.121 172.927 397.909 172.754 397.898 172.53L397.29 159.692C397.28 159.468 397.476 159.28 397.731 159.271L405.361 158.989C405.616 158.98 405.828 159.153 405.839 159.375L406.447 172.213C406.457 172.437 406.261 172.627 406.006 172.636Z" fill="#F1A34F"/>
<path d="M404.024 172.707L397.101 172.962C396.653 172.978 396.273 172.67 396.254 172.275L395.675 160.062C395.656 159.666 396.005 159.331 396.454 159.315L403.376 159.06C403.825 159.044 404.205 159.352 404.223 159.747L404.803 171.96C404.821 172.358 404.472 172.691 404.024 172.707Z" fill="#D86713"/>
<path d="M395.801 161.867C395.801 161.867 397.88 159.817 399.962 161.383C402.042 162.95 399.823 166.292 398.019 167.206C396.215 168.12 395.636 168.597 395.636 168.597L395.801 161.867Z" fill="#D9935C"/>
<path d="M449.42 298.342C448.714 300.817 447.938 303.175 447.146 305.37C446.976 305.84 446.811 306.303 446.64 306.756C446.556 306.98 446.47 307.203 446.388 307.422C446.221 307.857 446.058 308.283 445.893 308.699C445.678 309.243 445.465 309.773 445.253 310.284C445.098 310.663 444.944 311.036 444.789 311.401C442.439 316.961 440.47 320.484 440.47 320.484L435.789 320.2C435.789 320.2 437.546 312.822 437.898 302.256C437.908 301.879 437.921 301.5 437.929 301.114C437.947 300.295 437.958 299.459 437.958 298.606C437.958 298.256 437.955 297.902 437.953 297.546C437.858 288.445 436.581 277.69 432.506 267.42C429.192 259.071 426.79 251.261 425.054 244.203C419.448 221.415 420.764 206.445 420.764 206.445L447.102 209.163L448.329 209.29C448.439 219.962 448.751 234.454 449.024 245.783C449.071 247.749 449.115 249.621 449.157 251.36C449.338 258.634 449.477 263.608 449.477 263.608C454.546 273.225 452.708 286.805 449.42 298.342Z" fill="#CB7D45"/>
<path d="M441.881 126.66C441.881 126.66 448.111 131.34 442.397 136.728C442.397 136.728 447.159 137.14 448.769 135.977C448.769 135.977 448.452 136.543 448.158 136.798C448.158 136.798 453.481 136.967 455.679 135.502C457.876 134.038 456.465 110.013 441.692 112.699C441.692 112.699 429.171 111.863 430.338 124.648C431.505 137.429 426.777 137.429 426.777 137.429C426.777 137.429 428.091 138.001 428.725 138.001C428.725 138.001 429.653 137.688 429.837 137.235C429.837 137.235 429.653 137.945 429.415 138.172C429.415 138.172 434.518 138.598 437.066 136.9C439.615 135.201 442.607 129.298 441.881 126.66Z" fill="#233862"/>
<path d="M461.988 203.835C457.011 193.987 454.63 191.201 454.546 188.104C454.48 185.654 455.849 183.01 458.511 176.527C459.137 175 459.57 173.43 459.835 171.84C461.938 159.341 453.746 145.83 448.656 144.909C447.24 144.578 444.839 140.065 444.867 132.791L444.23 132.902L433.508 134.776C433.508 134.776 433.752 137.754 433.76 140.558C433.768 142.894 433.623 145.273 433.023 145.55C432.252 145.613 431.549 145.735 431.549 145.735C431.549 145.735 422.476 151.357 421.889 158.982C421.105 169.168 429.244 181.242 422.028 201.598C414.657 222.389 464.738 209.279 461.988 203.835Z" fill="#D9935C"/>
<path d="M433.508 134.774C433.508 134.774 433.752 137.751 433.76 140.555C439.759 140.405 442.93 135.577 444.23 132.902L433.508 134.774Z" fill="#CB7D45"/>
<path d="M445.334 131.871C445.334 131.871 448.478 127.489 449.233 123.741C449.771 121.065 448.226 111.149 436.933 112.576C436.933 112.576 433.652 112.861 430.569 114.7C428.117 116.162 424.577 119.316 428.534 127.97L429.562 130.894L445.334 131.871Z" fill="#233862"/>
<path d="M431.502 137.43C431.502 137.43 445.696 137.636 445.706 129.835C445.717 122.034 447.555 116.808 438.493 116.345C429.43 115.882 427.666 118.858 426.945 121.462C426.223 124.065 427.81 137.175 431.502 137.43Z" fill="#D9935C"/>
<path d="M432.029 116.155C432.029 116.155 435.915 125.307 441.881 126.661C447.846 128.014 450.432 126.603 450.432 126.603C450.432 126.603 445.856 123.397 444.907 117.8C444.907 117.8 434.961 111.799 432.029 116.155Z" fill="#233862"/>
<path d="M432.991 116.898C432.991 116.898 430.089 118.941 429.381 120.928C428.673 122.915 428.355 127.003 427.005 126.864C427.005 126.864 424.076 120.643 427.367 117.125C430.857 113.393 432.991 116.898 432.991 116.898Z" fill="#233862"/>
<path d="M480.448 214.297L476.187 215.423C476.187 215.423 462.129 194.845 460.852 189.492C460.435 187.748 459.413 184.261 458.22 180.351C455.752 172.257 452.566 162.355 452.566 162.355L451.517 158.346L447.938 144.673C447.938 144.673 454.79 145.291 458.797 146.769C460.123 147.257 461.136 147.84 461.49 148.525C464.434 154.237 467.374 168.65 469.44 178.933C470.591 184.664 471.47 189.112 471.929 190.054C473.206 192.687 477.113 207.157 480.448 214.297Z" fill="#D9935C"/>
<path d="M432.454 117.208C432.454 117.208 435.223 126.793 442.749 129.86C442.749 129.86 435.223 123.973 434.583 117.645C433.943 111.32 432.454 117.208 432.454 117.208Z" fill="#233862"/>
<path d="M464.529 296.341C463.013 310.599 456.345 319.82 456.345 319.82L454.069 321.648C454.069 321.648 451.995 311.207 450.497 299.256C449.071 287.897 447.115 275.874 444.902 272.205C441.595 266.722 439.156 255.508 437.402 243.664C434.502 224.062 433.474 202.718 433.474 202.718L460.179 201.55C462.866 205.533 464.036 212.066 464.314 219.495C464.607 227.305 463.91 236.108 462.942 243.974C461.592 254.986 459.712 264.163 459.274 266.227C459.274 266.229 459.274 266.231 459.271 266.236C459.214 266.507 459.303 266.78 459.447 267.025C464.759 276.304 465.528 286.921 464.529 296.341Z" fill="#D9935C"/>
<path d="M433.366 171.098C432.766 184.039 430.571 196.856 424.183 196.03C416.356 195.021 414.316 188.576 413.899 183.782C413.642 180.8 414.015 178.457 414.015 178.457C414.015 178.457 417.867 178.44 418.491 177.934C421.448 175.523 420.57 151.873 422.036 149.416C423.502 146.961 433.005 145.384 433.005 145.384C433.005 145.384 433.962 158.304 433.366 171.098Z" fill="#EE9849"/>
<path d="M433.366 171.098C432.766 184.039 430.571 196.856 424.184 196.03C416.356 195.021 414.316 188.576 413.899 183.782C415.821 183.697 419.204 183.283 420.549 181.473C422.474 178.882 428.479 162.212 428.479 162.212C428.479 162.212 430.844 165.955 433.366 171.098Z" fill="#E58638"/>
<path d="M449.42 298.342C448.714 300.817 447.938 303.175 447.146 305.37C446.976 305.84 446.811 306.303 446.64 306.756C446.556 306.98 446.47 307.203 446.388 307.422C446.221 307.857 446.058 308.283 445.893 308.699C445.678 309.243 445.465 309.773 445.253 310.284C445.098 310.663 444.944 311.036 444.789 311.401C442.439 316.961 440.47 320.484 440.47 320.484L435.789 320.199C435.789 320.199 437.546 312.822 437.898 302.256C437.908 301.879 437.921 301.5 437.929 301.114C437.947 300.295 437.958 299.459 437.958 298.606C437.958 298.256 437.955 297.902 437.953 297.546C437.858 288.445 436.581 277.69 432.506 267.42C429.192 259.071 426.79 251.261 425.054 244.203C427.836 244.709 430.288 244.191 437.399 243.666C438.147 243.61 441.721 247.515 445.25 252.681C445.431 259.955 449.477 263.608 449.477 263.608C454.546 273.225 452.708 286.805 449.42 298.342Z" fill="#233862"/>
<path d="M464.529 296.341C463.013 310.599 456.345 319.82 456.345 319.82L454.069 321.648C454.069 321.648 451.995 311.207 450.497 299.256C449.071 287.897 447.115 275.874 444.902 272.205C441.595 266.722 439.156 255.509 437.402 243.664C439.862 244.566 448.224 246.909 462.94 243.974C461.589 254.986 459.709 264.163 459.271 266.227C459.271 266.229 459.271 266.231 459.269 266.236C459.211 266.507 459.3 266.78 459.444 267.025C464.76 276.304 465.528 286.921 464.529 296.341Z" fill="#2B478B"/>
<path d="M469.645 226.961C469.645 226.961 464.057 228.483 455.828 229.487C445.638 230.729 431.392 231.178 418.669 226.961C418.669 226.961 417.62 210.257 420.636 201.552C423.651 192.842 425.059 188.678 425.059 188.678C425.059 188.678 437.137 191.35 449.404 189.277C451.127 188.988 452.852 188.601 454.549 188.104C454.549 188.104 462.116 202.278 464.196 208.351C466.275 214.424 469.645 226.961 469.645 226.961Z" fill="#2B478B"/>
<path d="M469.645 226.96C469.645 226.96 464.057 228.483 455.828 229.487C440.735 221.936 448.095 190.163 448.095 190.163C448.544 189.841 448.982 189.545 449.404 189.274C451.127 188.985 452.852 188.599 454.549 188.101C454.549 188.101 462.116 202.276 464.196 208.349C466.275 214.422 469.645 226.96 469.645 226.96Z" fill="#233862"/>
<path d="M481.998 195.169C481.998 198.419 478.24 200.418 474.205 201.39C470.326 202.325 466.194 202.313 464.904 201.55C462.675 200.231 459.04 185.575 457.981 181.115C457.79 180.305 457.682 179.833 457.682 179.833C457.682 179.833 454.785 185.934 454.693 186.503C454.651 186.76 454.617 187.111 454.591 187.421C454.562 187.796 454.543 188.106 454.543 188.106C454.543 188.106 438.821 195.109 425.057 188.678C425.057 188.678 419.461 160.146 421.889 155.237C423.095 152.796 429.391 147.762 431.911 145.589C432.477 145.101 432.42 144.134 432.202 143.251C432.021 142.503 432.782 141.846 433.621 142.038C435.241 142.411 438.155 142.346 441.28 141.441C442.835 140.995 444.443 140.338 445.961 139.422C446.404 139.156 447.005 139.401 447.07 139.868C447.309 141.569 447.891 144.676 448.953 144.676C450.419 144.669 460.414 145.751 461.146 146.841C461.4 147.22 463.999 152.41 467.279 159.28C467.279 159.28 467.282 159.285 467.285 159.299C473.447 172.192 481.998 191.009 481.998 195.169Z" fill="#EE9849"/>
<path d="M457.682 179.833C457.682 179.833 454.785 185.934 454.693 186.503C454.651 186.76 454.617 187.111 454.591 187.421C453.19 188.43 451.496 189.193 449.771 189.656C444.87 190.966 442.741 182.676 443.032 178.542C443.326 174.406 450.256 162.603 452.566 162.357C454.871 162.112 457.682 179.833 457.682 179.833Z" fill="#E58638"/>
<path d="M457.983 181.115C457.79 180.305 457.682 179.833 457.682 179.833C457.835 180.27 457.935 180.696 457.983 181.115Z" fill="#E58638"/>
<path d="M437.882 191.821C428.935 191.821 425.245 189.105 424.973 188.92L424.393 185.203C424.48 185.258 436.484 191.618 455.065 185.527L454.672 188.342C447.526 190.686 442.528 191.821 437.882 191.821Z" fill="#B64C41"/>
<path d="M481.998 195.169C481.998 198.419 478.24 200.418 474.205 201.39C479.766 195.548 467.599 160.201 467.287 159.299C473.447 172.192 481.998 191.009 481.998 195.169Z" fill="#E58638"/>
<path d="M448.955 144.676C448.955 144.676 441.469 148.858 435.808 147.868C435.808 147.868 434.449 147.112 436.324 146.348C438.084 145.636 442.18 143.524 441.28 141.439C442.835 140.993 444.443 140.336 445.961 139.419C446.404 139.153 447.005 139.399 447.07 139.866C447.309 141.569 447.891 144.676 448.955 144.676Z" fill="#E58638"/>
<path d="M443.168 323.947H440.179C439.177 323.809 438.438 323.552 437.412 323.434C435.852 323.253 435.136 323.818 434.992 323.947C434.974 323.964 434.963 323.973 434.963 323.973H422.269C421.949 323.57 422.256 322.638 422.558 321.953C422.76 321.488 423.2 321.134 423.746 320.995C425.091 320.651 427.747 320.345 430.175 318.404C431.541 317.315 436.778 314.395 436.778 314.395L436.804 314.39C436.92 314.393 437.468 314.541 439.849 316.315C441.081 317.231 443.179 315.022 443.179 315.022C443.179 315.022 443.572 315.309 443.866 315.846C444.102 316.269 444.275 316.85 444.138 317.564C443.95 318.573 444.561 320.449 445.048 321.717C445.345 322.485 445.594 323.031 445.594 323.031C445.594 323.031 445.738 323.663 443.168 323.947Z" fill="#233862"/>
<path d="M443.868 315.843C443.155 316.287 441.65 317.16 440.651 317.275C439.303 317.43 436.781 314.395 436.781 314.395L436.807 314.39C436.922 314.393 437.47 314.541 439.851 316.315C441.084 317.231 443.181 315.022 443.181 315.022C443.181 315.022 443.575 315.309 443.868 315.843Z" fill="#466AA5"/>
<path d="M443.168 323.947H440.179C439.177 323.808 438.438 323.552 437.412 323.434C435.852 323.253 435.136 323.818 434.992 323.947C434.974 323.963 434.963 323.973 434.963 323.973H422.269C421.949 323.57 422.256 322.638 422.558 321.953C422.943 321.65 423.051 323.267 423.266 323.524C423.478 323.781 433.621 323.619 434.208 323.242C434.793 322.867 436.55 322.208 439.002 322.726C441.133 323.175 444.275 322.023 445.054 321.717C445.35 322.485 445.599 323.031 445.599 323.031C445.599 323.031 445.738 323.663 443.168 323.947Z" fill="#466AA5"/>
<path d="M459.114 323.947H456.124C455.123 323.809 454.383 323.552 453.358 323.434C451.798 323.253 451.082 323.818 450.938 323.947C450.919 323.964 450.912 323.973 450.912 323.973H438.217C437.898 323.57 438.204 322.638 438.506 321.953C438.708 321.488 439.148 321.134 439.694 320.995C441.039 320.651 443.693 320.345 446.123 318.404C447.49 317.315 452.726 314.395 452.726 314.395L452.755 314.39C452.87 314.393 453.418 314.541 455.799 316.315C457.032 317.231 459.13 315.022 459.13 315.022C459.13 315.022 459.523 315.309 459.817 315.846C460.053 316.269 460.226 316.85 460.089 317.564C459.9 318.573 460.511 320.449 460.999 321.717C461.295 322.485 461.545 323.031 461.545 323.031C461.545 323.031 461.686 323.663 459.114 323.947Z" fill="#233862"/>
<path d="M459.817 315.843C459.103 316.287 457.598 317.16 456.599 317.275C455.251 317.43 452.729 314.395 452.729 314.395L452.758 314.39C452.873 314.393 453.421 314.541 455.802 316.315C457.034 317.231 459.132 315.022 459.132 315.022C459.132 315.022 459.52 315.309 459.817 315.843Z" fill="#466AA5"/>
<path d="M459.114 323.947H456.124C455.123 323.808 454.383 323.552 453.358 323.434C451.798 323.253 451.082 323.818 450.938 323.947C450.919 323.963 450.912 323.973 450.912 323.973H438.217C437.897 323.57 438.204 322.638 438.506 321.953C438.891 321.65 438.999 323.267 439.214 323.524C439.426 323.781 449.569 323.619 450.156 323.242C450.741 322.867 452.498 322.208 454.95 322.726C457.082 323.175 460.223 322.023 461.002 321.717C461.298 322.485 461.547 323.031 461.547 323.031C461.547 323.031 461.686 323.663 459.114 323.947Z" fill="#466AA5"/>
<path d="M491.008 230.317C490.711 229.008 489.67 227.944 488.252 227.479C485.952 226.727 482.184 226.047 477.553 227.247C469.736 229.274 468.971 233.514 469.487 236.564C470.004 239.613 468.473 244.471 468.698 247.93C468.924 251.388 470.046 260.073 475.833 259.617C481.623 259.161 500.28 254.738 500.28 254.738C500.28 254.738 503.503 249.327 496.882 241.487C492.951 236.837 491.522 232.601 491.008 230.317Z" fill="#D37129"/>
<path d="M487.423 226.322L485.876 226.445C485.876 226.442 485.698 225.501 484.987 224.906C484.442 224.45 483.684 224.286 482.743 224.42C481.851 224.545 481.209 224.906 480.883 225.489C480.425 226.306 480.679 227.361 480.682 227.372L479.174 227.68C479.155 227.608 478.717 225.896 479.509 224.457C480.052 223.465 481.025 222.891 482.37 222.669C483.757 222.472 484.93 222.771 485.858 223.557C487.137 224.642 487.413 226.255 487.423 226.322Z" fill="#D37129"/>
<path d="M504.114 253.965C504.114 253.965 485.454 258.4 479.661 258.847C473.874 259.312 472.747 250.625 472.534 247.157C472.306 243.71 473.832 238.847 473.324 235.791C473.219 235.213 473.158 234.572 473.206 233.926C473.355 231.206 475.08 228.117 481.376 226.486C486.02 225.279 489.775 225.968 492.085 226.72C493.496 227.185 494.55 228.244 494.844 229.552C494.912 229.818 494.975 230.141 495.056 230.461C495.722 232.888 497.259 236.654 500.718 240.726C507.342 248.559 504.114 253.965 504.114 253.965Z" fill="#F1A34F"/>
<path opacity="0.4" d="M475.351 247.888L486.597 245.642C486.597 245.642 489.214 252.746 483.899 254.042C478.586 255.335 476.378 252.584 475.351 247.888Z" fill="#D86713"/>
<path d="M475.351 247.888C475.351 247.888 477.947 250.095 481.452 249.315C484.958 248.538 486.597 245.642 486.597 245.642L475.351 247.888Z" fill="#D37129"/>
<path opacity="0.4" d="M488.881 245.186L500.128 242.942C500.128 242.942 502.745 250.046 497.43 251.342C492.114 252.635 489.909 249.884 488.881 245.186Z" fill="#D86713"/>
<path d="M488.881 245.186C488.881 245.186 491.477 247.393 494.983 246.613C498.489 245.836 500.128 242.939 500.128 242.939L488.881 245.186Z" fill="#D37129"/>
<path opacity="0.4" d="M494.844 229.552C494.912 229.818 494.975 230.142 495.056 230.461C493.57 233.167 490.751 236.626 485.981 237.429C477.87 238.824 473.206 233.926 473.206 233.926C473.355 231.206 475.08 228.117 481.376 226.486C486.02 225.279 489.775 225.968 492.085 226.72C493.496 227.187 494.553 228.247 494.844 229.552Z" fill="#D86713"/>
<path d="M486.096 238.93C485.588 239.032 485.079 238.748 484.964 238.301L484.775 237.561C484.659 237.112 484.982 236.663 485.488 236.561C485.997 236.46 486.505 236.744 486.621 237.191L486.81 237.931C486.925 238.377 486.605 238.829 486.096 238.93Z" fill="#D86713"/>
<path d="M480.147 213.672C480.147 213.672 481.442 216.365 482.79 217.117C484.138 217.869 485.42 219.673 485.7 221.126C486.214 223.793 483.896 225.447 482.192 225.447C480.487 225.447 478.859 223.398 477.857 218.502C477.802 218.234 476.184 215.426 476.184 215.426L480.147 213.672Z" fill="#D9935C"/>
<path d="M257.356 112.651C255.321 109.923 247.237 111.45 239.302 116.061C231.367 120.671 226.584 126.619 228.619 129.347C230.657 132.074 238.738 130.547 246.673 125.937C254.611 121.328 259.391 115.378 257.356 112.651Z" fill="#233862"/>
<path d="M215.899 213.994L217.465 214.077C217.451 214.047 218.073 189.938 220.472 180.185C224.938 162.013 236.609 147.785 236.738 147.665L233.932 146.871C233.793 147.003 231.58 150.027 228.446 155.609C225.557 160.752 220.913 169.321 218.862 179.299C216.838 189.152 215.841 213.864 215.899 213.994Z" fill="#BC3F3F"/>
<path d="M244.214 112.438C244.214 112.438 233.974 110.511 229.057 117.858C224.143 125.206 223.87 137.974 220.593 142.149C217.315 146.325 211.536 163.951 217.679 167.896C223.823 171.84 261.675 167.752 263.799 165.952C265.923 164.155 263.67 145.645 259.973 140.282C256.273 134.922 265.286 109.706 244.214 112.438Z" fill="#A53D38"/>
<path d="M259.47 192.869C271.057 190.267 283.793 174.408 283.793 174.408L280.531 171.912C277.154 175.426 263.109 181.476 263.109 181.476C263.185 178.26 263.088 175.329 262.86 172.659C261.303 154.517 253.551 148.474 251.435 147.146C251.094 146.931 250.898 146.841 250.898 146.841C250.898 146.841 250.89 146.973 250.877 147.223C250.845 147.762 250.79 148.849 250.732 150.339C250.3 161.441 249.786 195.044 259.47 192.869Z" fill="#FFB27D"/>
<path d="M280.531 171.912C280.581 171.484 280.906 165.252 282.309 164.065C283.712 162.878 286.484 161.263 287.278 161.393C288.075 161.525 290.779 165.492 289.502 168.227C288.225 170.961 283.791 174.411 283.791 174.411L280.531 171.912Z" fill="#FFB27D"/>
<path d="M234.239 298.342C234.944 300.817 235.72 303.175 236.512 305.37C236.683 305.84 236.848 306.303 237.018 306.756C237.102 306.981 237.189 307.203 237.27 307.422C237.438 307.857 237.6 308.283 237.766 308.699C237.981 309.243 238.193 309.773 238.405 310.284C238.56 310.664 238.715 311.036 238.867 311.402C241.216 316.961 243.186 320.484 243.186 320.484L247.866 320.2C247.866 320.2 246.109 312.822 245.758 302.256C245.748 301.879 245.734 301.5 245.727 301.114C245.708 300.295 245.698 299.459 245.698 298.606C245.698 298.257 245.7 297.903 245.703 297.546C245.797 288.445 247.074 277.69 251.149 267.42C254.464 259.071 256.866 251.261 258.602 244.203C264.208 221.415 262.892 206.445 262.892 206.445L236.554 209.163L235.327 209.29C235.214 219.962 234.905 234.454 234.632 245.783C234.585 247.749 234.54 249.621 234.498 251.361C234.317 258.634 234.178 263.608 234.178 263.608C229.11 273.225 230.95 286.805 234.239 298.342Z" fill="#FFB27D"/>
<path d="M221.67 203.835C226.647 193.987 229.028 191.201 229.112 188.104C229.178 185.654 227.809 183.01 225.148 176.527C224.521 175 224.088 173.43 223.823 171.84C221.72 159.341 229.912 145.83 235.002 144.909C236.418 144.578 238.82 140.065 238.791 132.791L239.428 132.902L250.15 134.776C250.15 134.776 249.906 137.754 249.899 140.558C249.891 142.894 250.035 145.273 250.635 145.55C251.406 145.613 259.824 146.938 261.355 149.069C262.86 151.165 261.182 151.357 261.769 158.982C262.551 169.168 254.414 181.242 261.63 201.598C269.001 222.389 218.92 209.279 221.67 203.835Z" fill="#FFB27D"/>
<path d="M250.15 134.774C250.15 134.774 249.906 137.752 249.899 140.555C243.899 140.405 240.729 135.577 239.428 132.902L250.15 134.774Z" fill="#EF9E67"/>
<path d="M252.154 137.43C252.154 137.43 237.96 137.636 237.949 129.835C237.939 122.034 236.1 116.808 245.163 116.345C254.225 115.882 255.99 118.858 256.711 121.462C257.435 124.065 255.846 137.175 252.154 137.43Z" fill="#FFB27D"/>
<path d="M251.629 116.155C251.629 116.155 247.743 125.307 241.778 126.661C235.812 128.014 233.227 126.603 233.227 126.603C233.227 126.603 237.802 123.397 238.752 117.8C238.752 117.8 248.698 111.799 251.629 116.155Z" fill="#A53D38"/>
<path d="M250.667 116.898C250.667 116.898 253.57 118.941 254.278 120.928C254.986 122.915 255.303 127.003 256.656 126.864C256.656 126.864 259.585 120.644 256.294 117.125C252.801 113.393 250.667 116.898 250.667 116.898Z" fill="#A53D38"/>
<path d="M203.21 214.297L207.471 215.423C207.471 215.423 221.529 194.845 222.806 189.492C223.223 187.748 224.246 184.261 225.439 180.351C227.906 172.257 231.092 162.355 231.092 162.355L232.141 158.346L235.72 144.673C235.72 144.673 228.868 145.291 224.862 146.769C223.535 147.257 222.523 147.84 222.169 148.525C219.224 154.237 216.284 168.65 214.218 178.933C213.067 184.664 212.189 189.112 211.73 190.054C210.453 192.687 206.546 207.157 203.21 214.297Z" fill="#FFB27D"/>
<path d="M251.204 117.208C251.204 117.208 248.435 126.793 240.91 129.86C240.91 129.86 248.435 123.973 249.075 117.645C249.715 111.32 251.204 117.208 251.204 117.208Z" fill="#A53D38"/>
<path d="M219.13 296.341C220.645 310.599 227.313 319.82 227.313 319.82L229.59 321.648C229.59 321.648 231.664 311.207 233.161 299.256C234.587 287.897 236.544 275.874 238.757 272.205C242.063 266.722 244.502 255.509 246.256 243.664C249.156 224.062 250.184 202.718 250.184 202.718L223.48 201.55C220.792 205.533 219.625 212.067 219.347 219.495C219.054 227.305 219.751 236.108 220.719 243.974C222.069 254.986 223.949 264.163 224.387 266.227C224.387 266.229 224.387 266.231 224.39 266.236C224.447 266.507 224.358 266.78 224.214 267.025C218.899 276.304 218.13 286.921 219.13 296.341Z" fill="#FFB27D"/>
<path d="M269.757 183.782C269.342 188.573 267.302 195.021 259.475 196.027C256.706 196.384 254.726 194.179 253.321 190.51C251.482 185.716 250.63 178.424 250.292 171.093C249.967 164.15 250.1 157.166 250.292 152.234C253.504 151.914 259.396 149.513 261.203 148.916C261.255 148.965 261.308 149.016 261.352 149.067C261.389 149.106 261.426 149.145 261.46 149.187C261.523 149.263 261.575 149.34 261.62 149.416C262.401 150.725 262.517 158.066 262.902 164.995C263.238 171.058 263.783 176.807 265.162 177.934C265.789 178.44 269.639 178.457 269.639 178.457C269.639 178.457 270.016 180.8 269.757 183.782Z" fill="#FFB93E"/>
<path d="M250.292 171.098C250.892 184.039 253.087 196.856 259.472 196.03C267.3 195.021 269.34 188.576 269.757 183.782C267.834 183.697 264.452 183.283 263.107 181.473C261.182 178.882 255.174 162.212 255.174 162.212C255.174 162.212 252.814 165.955 250.292 171.098Z" fill="#FFA412"/>
<path d="M258.602 188.675C258.602 188.675 242.892 192.152 229.112 188.104C229.112 188.104 221.547 202.276 219.465 208.351C217.383 214.424 201.66 292.165 201.66 292.165C201.66 292.165 236.266 300.996 259.262 293.37C259.262 293.37 266.041 210.26 263.025 201.552C260.01 192.842 258.602 188.675 258.602 188.675Z" fill="#2B478B"/>
<path d="M262.905 164.941C261.756 174.961 258.602 188.55 258.602 188.55C256.863 189.362 255.091 189.957 253.321 190.38C241.114 193.307 229.115 187.981 229.115 187.981C229.115 187.981 229.097 187.671 229.065 187.296C229.042 186.986 229.005 186.639 228.963 186.38C228.874 185.813 225.976 179.731 225.976 179.731C225.976 179.731 225.866 180.206 225.675 181.013C224.615 185.459 220.981 200.071 218.752 201.388C217.459 202.146 213.329 202.158 209.451 201.226C205.415 200.259 201.658 198.264 201.658 195.023C201.658 190.875 210.209 172.115 216.368 159.262C216.371 159.248 216.374 159.243 216.374 159.243C219.654 152.391 221.558 147.623 224.067 147.091C224.067 147.091 240.941 153.15 250.289 152.22C253.501 151.901 259.394 149.508 261.2 148.912C261.253 148.96 261.305 149.011 261.35 149.06C261.386 149.099 261.423 149.138 261.457 149.18C261.494 149.224 261.525 149.268 261.557 149.312C262.926 151.093 262.711 154.045 262.781 155.172C262.918 157.379 263.419 160.458 262.905 164.941Z" fill="#FFB93E"/>
<path d="M225.976 179.833C225.976 179.833 228.874 185.934 228.966 186.503C229.007 186.76 229.042 187.111 229.068 187.421C230.468 188.43 232.162 189.193 233.887 189.656C238.788 190.966 240.918 182.676 240.626 178.542C240.333 174.406 233.402 162.603 231.092 162.357C228.785 162.112 225.976 179.833 225.976 179.833Z" fill="#FFA412"/>
<path d="M225.677 181.115C225.87 180.305 225.978 179.833 225.978 179.833C225.825 180.27 225.725 180.696 225.677 181.115Z" fill="#E58638"/>
<path d="M245.913 191.319C254.86 191.319 258.41 189.103 258.683 188.918L259.262 185.2C259.176 185.256 247.171 191.616 228.59 185.524L228.984 188.34C236.132 190.686 241.266 191.319 245.913 191.319Z" fill="#163560"/>
<path d="M201.66 195.169C201.66 198.419 205.418 200.418 209.454 201.39C203.892 195.548 216.059 160.201 216.371 159.299C210.211 172.192 201.66 191.009 201.66 195.169Z" fill="#FFA412"/>
<path d="M240.49 323.947H243.479C244.481 323.809 245.221 323.552 246.246 323.434C247.806 323.253 248.522 323.818 248.666 323.947C248.684 323.964 248.695 323.973 248.695 323.973H261.389C261.709 323.57 261.402 322.638 261.101 321.953C260.899 321.488 260.458 321.134 259.913 320.995C258.568 320.651 255.914 320.345 253.483 318.404C252.117 317.315 246.88 314.395 246.88 314.395L246.854 314.391C246.739 314.393 246.191 314.541 243.81 316.315C242.577 317.231 240.48 315.022 240.48 315.022C240.48 315.022 240.086 315.309 239.793 315.846C239.557 316.269 239.384 316.85 239.52 317.565C239.709 318.573 239.098 320.449 238.61 321.717C238.314 322.485 238.065 323.031 238.065 323.031C238.065 323.031 237.92 323.663 240.49 323.947Z" fill="#233862"/>
<path d="M239.79 315.843C240.503 316.288 242.008 317.16 243.007 317.275C244.355 317.43 246.878 314.395 246.878 314.395L246.852 314.391C246.736 314.393 246.188 314.541 243.807 316.315C242.575 317.231 240.477 315.022 240.477 315.022C240.477 315.022 240.084 315.309 239.79 315.843Z" fill="#466AA5"/>
<path d="M240.49 323.947H243.479C244.481 323.809 245.221 323.552 246.246 323.434C247.806 323.253 248.522 323.818 248.666 323.947C248.684 323.964 248.695 323.973 248.695 323.973H261.389C261.709 323.57 261.402 322.638 261.101 321.953C260.715 321.65 260.608 323.267 260.393 323.524C260.18 323.781 250.037 323.619 249.45 323.242C248.865 322.867 247.106 322.208 244.657 322.726C242.525 323.175 239.383 322.023 238.605 321.717C238.308 322.485 238.059 323.031 238.059 323.031C238.059 323.031 237.92 323.663 240.49 323.947Z" fill="#466AA5"/>
<path d="M224.544 323.947H227.533C228.535 323.809 229.274 323.552 230.299 323.434C231.86 323.253 232.575 323.818 232.72 323.947C232.738 323.964 232.748 323.973 232.748 323.973H245.443C245.762 323.57 245.456 322.638 245.154 321.953C244.952 321.488 244.512 321.134 243.966 320.996C242.621 320.651 239.965 320.345 237.537 318.404C236.17 317.315 230.934 314.395 230.934 314.395L230.908 314.391C230.792 314.393 230.244 314.541 227.863 316.315C226.631 317.232 224.533 315.022 224.533 315.022C224.533 315.022 224.14 315.309 223.846 315.846C223.61 316.269 223.437 316.85 223.573 317.565C223.762 318.573 223.151 320.45 222.663 321.717C222.367 322.485 222.118 323.031 222.118 323.031C222.118 323.031 221.971 323.663 224.544 323.947Z" fill="#233862"/>
<path d="M223.842 315.843C224.555 316.288 226.06 317.16 227.059 317.275C228.407 317.43 230.929 314.395 230.929 314.395L230.903 314.391C230.788 314.393 230.24 314.541 227.859 316.315C226.626 317.231 224.529 315.022 224.529 315.022C224.529 315.022 224.138 315.309 223.842 315.843Z" fill="#466AA5"/>
<path d="M224.544 323.947H227.534C228.535 323.809 229.275 323.552 230.3 323.434C231.86 323.253 232.576 323.818 232.721 323.947C232.739 323.964 232.749 323.973 232.749 323.973H245.443C245.763 323.57 245.457 322.638 245.155 321.953C244.77 321.65 244.662 323.267 244.447 323.524C244.235 323.781 234.092 323.619 233.505 323.242C232.92 322.867 231.163 322.208 228.711 322.726C226.579 323.175 223.438 322.023 222.659 321.717C222.363 322.485 222.114 323.031 222.114 323.031C222.114 323.031 221.972 323.663 224.544 323.947Z" fill="#466AA5"/>
<path d="M203.512 213.672C203.512 213.672 202.216 216.365 200.866 217.117C199.518 217.869 198.236 219.673 197.955 221.126C197.441 223.793 199.759 225.448 201.464 225.448C203.168 225.448 204.797 223.398 205.798 218.503C205.853 218.234 207.471 215.426 207.471 215.426L203.512 213.672Z" fill="#FFB27D"/>
<path d="M286.975 158.013L286.776 159.82L286.149 165.511L285.748 169.154H277.511L277.005 165.511L276.213 159.82L275.962 158.013H286.975Z" fill="#EE9849"/>
<path d="M287.559 158.013H275.313L275.552 156.928H287.26L287.559 158.013Z" fill="#D17A33"/>
<path d="M286.775 159.82L286.148 165.511H277.004L276.212 159.82H286.775Z" fill="#D17A33"/>
<path d="M287.858 161.867C287.858 161.867 285.778 159.817 283.696 161.383C281.617 162.95 283.835 166.293 285.639 167.206C287.443 168.12 288.023 168.597 288.023 168.597L287.858 161.867Z" fill="#FFB27D"/>
<path d="M240.65 214.105L239.085 214.001C239.103 213.97 242.147 189.848 241.253 179.831C239.588 161.171 230.182 145.589 230.075 145.453L232.975 144.995C233.093 145.143 234.826 148.423 237.084 154.364C239.166 159.838 242.467 168.939 242.984 179.137C243.495 189.21 240.729 213.982 240.65 214.105Z" fill="#BC3F3F"/>
<path d="M221.686 208.8C221.686 208.8 223.207 205.499 225.625 204.675L237.97 206.727C237.97 206.727 234.923 209.286 234.637 210.954L221.686 208.8Z" fill="#D2E4FF"/>
<path d="M237.183 227.435L216.085 223.928C215.094 223.763 214.441 222.919 214.627 222.047L217.263 209.707C217.449 208.832 218.406 208.256 219.397 208.421L240.495 211.928C241.487 212.092 242.139 212.934 241.953 213.809L239.318 226.149C239.129 227.023 238.175 227.599 237.183 227.435Z" fill="#912F2F"/>
<path d="M229.6 202.033L219.51 201.956L219.396 213.366L229.486 213.443L229.6 202.033Z" fill="#E58638"/>
<path d="M229.021 202.028L218.93 201.951L218.817 213.361L228.907 213.438L229.021 202.028Z" fill="#EE9849"/>
<path d="M235.158 208.842L227.145 203.431L219.285 212.491L227.298 217.902L235.158 208.842Z" fill="#578E9B"/>
<path d="M234.248 208.244L226.243 202.825L218.394 211.894L226.4 217.312L234.248 208.244Z" fill="#74ACBE"/>
<path d="M232.028 226.576L211.827 223.217C210.589 223.011 209.774 221.959 210.007 220.865L212.474 209.316C212.708 208.222 213.901 207.504 215.141 207.71L235.343 211.069C236.58 211.275 237.396 212.328 237.163 213.422L234.695 224.971C234.462 226.065 233.269 226.785 232.028 226.576Z" fill="#BC3F3F"/>
<path d="M227.253 122.578C227.253 122.578 220.795 111.237 229.82 106.754C238.843 102.27 245.451 104.031 250.415 109.514L227.253 122.578Z" fill="#233862"/>
<path d="M263.61 108.267C261.754 105.641 255.253 106.064 247.41 108.898C244.342 110.004 241.077 111.48 237.8 113.282C233.722 115.526 230.172 117.981 227.387 120.382C222.192 124.863 219.659 129.152 221.34 131.533C221.857 132.257 222.628 132.729 223.784 133C224.932 130.813 228.234 128.768 229.17 127.066C230.492 124.66 233.832 120.299 239.945 116.933C244.641 114.349 249.314 112.826 252.529 112.644C254.398 112.537 255.778 112.882 256.383 113.74C256.855 114.409 256.805 115.316 256.318 116.364C256.777 117.044 257.296 118.002 257.723 119.274C262.813 114.846 265.275 110.619 263.61 108.267Z" fill="#2B478B"/>
<path d="M476.187 29.1812C455.409 29.1812 438.503 44.096 438.503 62.4278C438.503 80.7596 455.409 95.6721 476.187 95.6721C496.965 95.6721 513.871 80.7596 513.871 62.4278C513.871 44.096 496.965 29.1812 476.187 29.1812ZM476.187 93.5044C456.764 93.5044 440.963 79.5636 440.963 62.4278C440.963 45.2921 456.764 31.3512 476.187 31.3512C495.61 31.3512 511.411 45.2921 511.411 62.4278C511.414 79.5636 495.612 93.5044 476.187 93.5044Z" fill="#F9DDBF"/>
<path d="M476.187 37.2251C477.016 37.2251 477.69 36.6328 477.69 35.8995C477.69 35.1684 477.018 34.5739 476.187 34.5739C475.358 34.5739 474.685 35.1661 474.685 35.8995C474.687 36.6305 475.358 37.2251 476.187 37.2251Z" fill="#F9DDBF"/>
<path d="M476.187 88.0586C475.358 88.0586 474.685 88.6531 474.685 89.3842C474.685 90.1152 475.356 90.7098 476.187 90.7098C477.016 90.7098 477.69 90.1175 477.69 89.3842C477.69 88.6531 477.018 88.0586 476.187 88.0586Z" fill="#F9DDBF"/>
<path d="M504.997 61.3174C504.169 61.3174 503.495 61.9096 503.495 62.643C503.495 63.374 504.166 63.9686 504.997 63.9686C505.826 63.9686 506.5 63.3763 506.5 62.643C506.5 61.9096 505.826 61.3174 504.997 61.3174Z" fill="#F9DDBF"/>
<path d="M490.205 83.6861C489.634 84.2159 489.655 85.0557 490.255 85.56C490.856 86.0644 491.805 86.0459 492.379 85.5161C492.951 84.9863 492.93 84.1488 492.329 83.6422C491.729 83.1378 490.78 83.1564 490.205 83.6861Z" fill="#F9DDBF"/>
<path d="M500.036 75.441C499.464 75.9708 499.485 76.8106 500.086 77.3149C500.686 77.8192 501.638 77.8007 502.21 77.2709C502.782 76.7412 502.761 75.9014 502.16 75.397C501.56 74.8927 500.61 74.9135 500.036 75.441Z" fill="#F9DDBF"/>
<path d="M501.775 51.1868C502.522 50.8698 502.837 50.0763 502.477 49.417C502.118 48.7576 501.219 48.48 500.471 48.7993C499.724 49.1162 499.409 49.9097 499.771 50.5691C500.13 51.2284 501.027 51.5037 501.775 51.1868Z" fill="#F9DDBF"/>
<path d="M492.106 39.8763C491.409 39.4784 490.481 39.6565 490.03 40.2719C489.579 40.8873 489.781 41.7062 490.478 42.1041C491.176 42.5021 492.104 42.3239 492.555 41.7085C493.006 41.0932 492.804 40.2742 492.106 39.8763Z" fill="#F9DDBF"/>
<path d="M449.556 60.8732C448.727 60.8732 448.053 61.4654 448.053 62.1988C448.053 62.9298 448.725 63.5244 449.556 63.5244C450.385 63.5244 451.058 62.9322 451.058 62.1988C451.058 61.4654 450.385 60.8732 449.556 60.8732Z" fill="#F9DDBF"/>
<path d="M462.224 83.198C461.623 83.7023 461.6 84.5421 462.174 85.0719C462.746 85.6017 463.698 85.6225 464.298 85.1159C464.899 84.6115 464.922 83.7717 464.348 83.2419C463.774 82.7122 462.824 82.6937 462.224 83.198Z" fill="#F9DDBF"/>
<path d="M452.393 74.9529C451.793 75.4572 451.769 76.297 452.343 76.8268C452.915 77.3565 453.867 77.3774 454.467 76.8707C455.068 76.3664 455.091 75.5266 454.517 74.9968C453.943 74.4693 452.994 74.4485 452.393 74.9529Z" fill="#F9DDBF"/>
<path d="M452.779 50.7426C453.526 51.0595 454.423 50.7842 454.785 50.1249C455.144 49.4656 454.832 48.6744 454.084 48.3551C453.337 48.0382 452.44 48.3135 452.078 48.9728C451.717 49.6344 452.031 50.4256 452.779 50.7426Z" fill="#F9DDBF"/>
<path d="M462.444 39.4321C461.747 39.83 461.547 40.649 461.996 41.2644C462.447 41.8797 463.375 42.0556 464.072 41.66C464.77 41.2621 464.969 40.4431 464.521 39.8277C464.072 39.2123 463.142 39.0365 462.444 39.4321Z" fill="#F9DDBF"/>
<path d="M490.344 52.709L478.067 60.193C478.023 60.1699 477.978 60.1468 477.931 60.126L476.614 39.6635V60.126C476.116 60.3411 475.775 60.7922 475.775 61.3151C475.775 62.0461 476.447 62.6407 477.278 62.6407C478.107 62.6407 478.78 62.0484 478.78 61.3151C478.78 61.248 478.773 61.1832 478.762 61.1184L490.344 52.709Z" fill="#F9DDBF"/>
</svg>
